<svg id="Group_22" data-name="Group 22" xmlns="http://www.w3.org/2000/svg" width="141.417" height="45.69" viewBox="0 0 141.417 45.69">
  <g id="Group_10577" data-name="Group 10577">
    <rect id="Rectangle_1051" data-name="Rectangle 1051" width="45.69" height="45.69" rx="10" fill="#1cb260"/>
    <path id="Path_16803" data-name="Path 16803" d="M35.57,26.75V18.59A3.06,3.06,0,1,0,33,13.24l-7.1-4.1V8.81a3.06,3.06,0,1,0-6.12,0V9.2l-7,4.07a3.06,3.06,0,1,0-2.65,5.31v8.18a3.073,3.073,0,1,0,1.33,6,3,3,0,0,0,1.3-.65l7.21,4.17.05-.1a5.15,5.15,0,0,0,1.71,3.07v.56h.62v-.25a1.75,1.75,0,0,0,.51.08,1.69,1.69,0,0,0,.73-.16v.33h.62v-.73a5.54,5.54,0,0,0,1.48-2.84L32.9,32a3.06,3.06,0,1,0,2.68-5.28Zm-.65-12.94a1.82,1.82,0,1,1-1.82,1.82h0a1.82,1.82,0,0,1,1.82-1.82ZM25.43,10.4l6.73,3.89a3.05,3.05,0,0,0-.12,2.3l-4.56,2.67a5.55,5.55,0,0,0-4-2.49v-5a3.11,3.11,0,0,0,2-1.4ZM22.8,7A1.82,1.82,0,1,1,21,8.85h0A1.81,1.81,0,0,1,22.8,7Zm-2.56,3.42a3,3,0,0,0,1.91,1.35v5a5.55,5.55,0,0,0-4,2.52l-4.51-2.63a3,3,0,0,0-.08-2.35ZM8.92,15.63a1.82,1.82,0,1,1,1.82,1.81h0a1.82,1.82,0,0,1-1.82-1.81Zm1.82,16a1.82,1.82,0,1,1,1.81-1.81h0a1.81,1.81,0,0,1-1.81,1.77Zm.66-4.84v-8.2a3.08,3.08,0,0,0,1.51-.82l4.64,2.71a5.56,5.56,0,0,0,.32,4.41l-4.82,2.83a3,3,0,0,0-1.66-1Zm14.47,7.82v-.48c0-2.63-1-4.83-2.39-5.38v-4.7a1.84,1.84,0,1,0-2.36-1.12,1.88,1.88,0,0,0,1.12,1.12v4.62c-1.42.48-2.49,2.73-2.49,5.42v.55L13.53,31a3.08,3.08,0,0,0,.29-1.3,3.36,3.36,0,0,0-.13-.89L18.61,26a5.61,5.61,0,0,0,3.23,1.83V26.5a4.31,4.31,0,1,1,2.11,0v1.32A5.63,5.63,0,0,0,27,26l5,2.91A3.07,3.07,0,0,0,32.12,31Zm6.74-6.82-4.86-2.83a5.54,5.54,0,0,0,.32-4.49l4.65-2.73a3.06,3.06,0,0,0,1.55.88V26.8a3,3,0,0,0-1.66,1Zm2.31,3.84a1.82,1.82,0,1,1,1.81-1.81h0a1.81,1.81,0,0,1-1.81,1.77Z" fill="#fff"/>
  </g>
  <g id="Taizo" transform="translate(50.232 7.28)">
    <g id="Group_11869" data-name="Group 11869">
      <path id="Path_18540" data-name="Path 18540" d="M61.74,11.82H58.12v10H54.44v-10H50.83V8.52H61.74Z" transform="translate(-50.83 -7.28)" fill="#f5f5f5"/>
      <path id="Path_18541" data-name="Path 18541" d="M72.66,11.55V21.81H69.92l-.3-.73a4.85,4.85,0,0,1-3.09,1.07,5.22,5.22,0,0,1-5.38-5.47,5.2,5.2,0,0,1,5.38-5.44,4.87,4.87,0,0,1,3.13,1.1l.36-.79Zm-3.37,5.14a2.3,2.3,0,1,0-4.59,0,2.3,2.3,0,1,0,4.59,0Z" transform="translate(-50.83 -7.28)" fill="#f5f5f5"/>
      <path id="Path_18542" data-name="Path 18542" d="M74.88,11.56h3.54V21.82H74.88Zm0-4.28h3.48v3H74.91Z" transform="translate(-50.83 -7.28)" fill="#f5f5f5"/>
      <path id="Path_18543" data-name="Path 18543" d="M88.78,18.68v3.14H79.92v-.53l3.93-6.61H80.27V11.56h8.47v.58l-3.88,6.54Z" transform="translate(-50.83 -7.28)" fill="#f5f5f5"/>
      <path id="Path_18544" data-name="Path 18544" d="M89.7,16.69a5.76,5.76,0,1,1,5.75,5.46,5.41,5.41,0,0,1-5.75-5.46Zm8,0a2.22,2.22,0,1,0-4.43,0,2.22,2.22,0,1,0,4.43,0Z" transform="translate(-50.83 -7.28)" fill="#f5f5f5"/>
    </g>
  </g>
  <g id="A_simple_hiring_app" data-name="A simple hiring app" transform="translate(52.116 28)">
    <g id="Group_11870" data-name="Group 11870">
      <path id="Path_18545" data-name="Path 18545" d="M53.2,35.24l2.58-7h.89l2.57,7h-.89l-.64-1.8h-3l-.65,1.8ZM55,32.76h2.48L56.22,29.3Z" transform="translate(-53.2 -28)" fill="#f5f5f5"/>
      <path id="Path_18546" data-name="Path 18546" d="M65,35.36a2.39,2.39,0,0,1-1.48-.45,1.79,1.79,0,0,1-.69-1.22h.86a1.18,1.18,0,0,0,.42.67,1.33,1.33,0,0,0,.9.29,1.12,1.12,0,0,0,.78-.23.67.67,0,0,0,.25-.53.6.6,0,0,0-.32-.6,4.32,4.32,0,0,0-.92-.27,5.11,5.11,0,0,1-.8-.23,1.8,1.8,0,0,1-.67-.43,1,1,0,0,1-.27-.72,1.34,1.34,0,0,1,.49-1.07,2,2,0,0,1,1.31-.41,2.07,2.07,0,0,1,1.3.39,1.6,1.6,0,0,1,.58,1.13h-.83a.89.89,0,0,0-.32-.6,1.2,1.2,0,0,0-.74-.21,1.07,1.07,0,0,0-.69.19.59.59,0,0,0-.25.5.52.52,0,0,0,.32.47,3.47,3.47,0,0,0,.85.29c.31.07.6.15.88.24a1.76,1.76,0,0,1,.68.43,1.21,1.21,0,0,1,.26.83,1.34,1.34,0,0,1-.5,1.1,2.11,2.11,0,0,1-1.4.44Z" transform="translate(-53.2 -28)" fill="#f5f5f5"/>
      <path id="Path_18547" data-name="Path 18547" d="M68.66,29.18a.57.57,0,0,1-.41-.17.55.55,0,0,1-.17-.41.54.54,0,0,1,.17-.4.61.61,0,0,1,.82,0,.51.51,0,0,1,.17.4.52.52,0,0,1-.17.41A.57.57,0,0,1,68.66,29.18Zm-.42,6.06v-5h.84v5Z" transform="translate(-53.2 -28)" fill="#f5f5f5"/>
      <path id="Path_18548" data-name="Path 18548" d="M70.63,35.24v-5h.76l.06.72a1.73,1.73,0,0,1,.64-.62,1.82,1.82,0,0,1,.9-.22,2.05,2.05,0,0,1,1,.24,1.55,1.55,0,0,1,.65.73,1.89,1.89,0,0,1,.72-.71,2,2,0,0,1,1-.26,1.92,1.92,0,0,1,1.42.53,2.24,2.24,0,0,1,.53,1.65v2.9h-.83V32.43a1.82,1.82,0,0,0-.31-1.16,1.06,1.06,0,0,0-.89-.39,1.23,1.23,0,0,0-1,.46,2,2,0,0,0-.4,1.33v2.57h-.84V32.43a1.82,1.82,0,0,0-.31-1.16,1.06,1.06,0,0,0-.89-.39,1.23,1.23,0,0,0-1,.46,2,2,0,0,0-.4,1.33v2.57Z" transform="translate(-53.2 -28)" fill="#f5f5f5"/>
      <path id="Path_18549" data-name="Path 18549" d="M79.67,37.44V30.28h.76l.08.82a2.28,2.28,0,0,1,.69-.65,2,2,0,0,1,1.13-.29,2.34,2.34,0,0,1,1.29.34,2.41,2.41,0,0,1,.86.93,2.91,2.91,0,0,1,.3,1.34,2.86,2.86,0,0,1-.3,1.33,2.31,2.31,0,0,1-.86.92,2.4,2.4,0,0,1-1.3.34,2.24,2.24,0,0,1-1.08-.25,1.76,1.76,0,0,1-.73-.7v3Zm2.56-2.81a1.59,1.59,0,0,0,.88-.24,1.51,1.51,0,0,0,.6-.65,2.29,2.29,0,0,0,0-2,1.6,1.6,0,0,0-.6-.66,1.67,1.67,0,0,0-.88-.23,1.72,1.72,0,0,0-.88.23,1.74,1.74,0,0,0-.6.66,2.29,2.29,0,0,0,0,2,1.63,1.63,0,0,0,1.48.89Z" transform="translate(-53.2 -28)" fill="#f5f5f5"/>
      <path id="Path_18550" data-name="Path 18550" d="M86,35.24V28h.84v7.2Z" transform="translate(-53.2 -28)" fill="#f5f5f5"/>
      <path id="Path_18551" data-name="Path 18551" d="M90.58,35.36A2.42,2.42,0,0,1,89.32,35a2.26,2.26,0,0,1-.86-.9,2.83,2.83,0,0,1-.32-1.37,3,3,0,0,1,.31-1.37,2.31,2.31,0,0,1,.87-.91,2.56,2.56,0,0,1,1.28-.32,2.39,2.39,0,0,1,1.25.32,2.2,2.2,0,0,1,.8.86,2.35,2.35,0,0,1,.28,1.14v.22a1.93,1.93,0,0,0,0,.25H89a1.89,1.89,0,0,0,.27.94,1.55,1.55,0,0,0,1.34.76,1.49,1.49,0,0,0,.87-.24,1.31,1.31,0,0,0,.51-.65h.83a2.18,2.18,0,0,1-2.21,1.6Zm0-4.49a1.68,1.68,0,0,0-1.06.36A1.5,1.5,0,0,0,89,32.3h3.1a1.4,1.4,0,0,0-.46-1,1.55,1.55,0,0,0-1.06-.43Z" transform="translate(-53.2 -28)" fill="#f5f5f5"/>
      <path id="Path_18552" data-name="Path 18552" d="M96.87,35.24V28h.84v3.09a1.82,1.82,0,0,1,.71-.72,2,2,0,0,1,1-.25,1.84,1.84,0,0,1,1.38.53,2.29,2.29,0,0,1,.52,1.65v2.9h-.83V32.43c0-1-.41-1.55-1.25-1.55a1.45,1.45,0,0,0-1.09.46,1.89,1.89,0,0,0-.44,1.33v2.57Z" transform="translate(-53.2 -28)" fill="#f5f5f5"/>
      <path id="Path_18553" data-name="Path 18553" d="M103.19,29.18a.57.57,0,0,1-.41-.17.55.55,0,0,1-.17-.41.54.54,0,0,1,.17-.4.61.61,0,0,1,.82,0,.51.51,0,0,1,.17.4.52.52,0,0,1-.17.41A.57.57,0,0,1,103.19,29.18Zm-.42,6.06v-5h.84v5Z" transform="translate(-53.2 -28)" fill="#f5f5f5"/>
      <path id="Path_18554" data-name="Path 18554" d="M105.16,35.24v-5h.76l.07.95a1.82,1.82,0,0,1,.7-.78,2.22,2.22,0,0,1,1.16-.29V31h-.23a2.16,2.16,0,0,0-.81.15,1.31,1.31,0,0,0-.59.53,2.09,2.09,0,0,0-.22,1v2.5Z" transform="translate(-53.2 -28)" fill="#f5f5f5"/>
      <path id="Path_18555" data-name="Path 18555" d="M109.39,29.18A.57.57,0,0,1,109,29a.55.55,0,0,1-.17-.41.54.54,0,0,1,.17-.4.61.61,0,0,1,.82,0,.51.51,0,0,1,.17.4.52.52,0,0,1-.17.41.57.57,0,0,1-.43.18ZM109,35.24v-5h.84v5Z" transform="translate(-53.2 -28)" fill="#f5f5f5"/>
      <path id="Path_18556" data-name="Path 18556" d="M111.36,35.24v-5h.76v.89a1.82,1.82,0,0,1,.69-.74,1.94,1.94,0,0,1,1-.27,1.91,1.91,0,0,1,1.41.53,2.29,2.29,0,0,1,.52,1.65v2.9H115V32.43c0-1-.43-1.55-1.28-1.55a1.37,1.37,0,0,0-1.06.46,1.88,1.88,0,0,0-.43,1.33v2.57Z" transform="translate(-53.2 -28)" fill="#f5f5f5"/>
      <path id="Path_18557" data-name="Path 18557" d="M119.13,33.68a2.7,2.7,0,0,1-.77-.11l-.5.47a1,1,0,0,0,.28.13,2.66,2.66,0,0,0,.47.1c.21,0,.5.07.87.1a2.39,2.39,0,0,1,1.43.46,1.3,1.3,0,0,1,.43,1,1.61,1.61,0,0,1-.23.82,1.81,1.81,0,0,1-.72.64,2.7,2.7,0,0,1-1.25.25,3.67,3.67,0,0,1-1.19-.18,1.72,1.72,0,0,1-.81-.53,1.36,1.36,0,0,1-.29-.89,1.47,1.47,0,0,1,.15-.61,1.66,1.66,0,0,1,.56-.61,2.121,2.121,0,0,1-.37-.2,1.63,1.63,0,0,1-.29-.23v-.23l.85-.84a1.65,1.65,0,0,1-.59-1.32,1.79,1.79,0,0,1,.23-.89,1.72,1.72,0,0,1,.67-.64,2.6,2.6,0,0,1,1.85-.11h1.83v.63h-.93a1.61,1.61,0,0,1,.29,1,1.79,1.79,0,0,1-.23.89,1.63,1.63,0,0,1-.67.63,2.2,2.2,0,0,1-1.07.27Zm-1.46,2.2a.8.8,0,0,0,.42.74,2,2,0,0,0,1,.25,1.67,1.67,0,0,0,1-.27.84.84,0,0,0,.37-.72.72.72,0,0,0-.26-.56,1.66,1.66,0,0,0-1-.27,7.693,7.693,0,0,1-1-.1,1.29,1.29,0,0,0-.54.47,1.15,1.15,0,0,0,.01.46ZM119.13,33a1.21,1.21,0,0,0,.85-.28,1.162,1.162,0,0,0,0-1.58,1.47,1.47,0,0,0-1.7,0,1.135,1.135,0,0,0,0,1.58,1.21,1.21,0,0,0,.85.28Z" transform="translate(-53.2 -28)" fill="#f5f5f5"/>
      <path id="Path_18558" data-name="Path 18558" d="M127.17,35.36a2.28,2.28,0,0,1-1-.21,1.51,1.51,0,0,1-.61-.56,1.54,1.54,0,0,1-.2-.76,1.35,1.35,0,0,1,.58-1.17,2.74,2.74,0,0,1,1.58-.41h1.34v-.06a1.34,1.34,0,0,0-.34-1,1.26,1.26,0,0,0-.91-.33,1.43,1.43,0,0,0-.84.24,1.1,1.1,0,0,0-.45.72h-.86a1.58,1.58,0,0,1,.37-.91,2,2,0,0,1,.78-.57,2.62,2.62,0,0,1,1-.19,1.87,1.87,0,0,1,2.09,2V35.2h-.75v-.89a1.89,1.89,0,0,1-.61.71,1.81,1.81,0,0,1-1.17.34Zm.13-.71a1.36,1.36,0,0,0,.83-.25,1.58,1.58,0,0,0,.52-.65,2,2,0,0,0,.18-.84h-1.27a1.64,1.64,0,0,0-1,.25.79.79,0,0,0-.31.64.75.75,0,0,0,.29.62,1.21,1.21,0,0,0,.76.23Z" transform="translate(-53.2 -28)" fill="#f5f5f5"/>
      <path id="Path_18559" data-name="Path 18559" d="M131,37.44V30.28h.76l.08.82a2.28,2.28,0,0,1,.69-.65,2,2,0,0,1,1.13-.29,2.37,2.37,0,0,1,1.29.34,2.41,2.41,0,0,1,.86.93,2.91,2.91,0,0,1,.3,1.34,2.86,2.86,0,0,1-.3,1.33,2.31,2.31,0,0,1-.81.9,2.4,2.4,0,0,1-1.3.34,2.21,2.21,0,0,1-1.08-.25,1.76,1.76,0,0,1-.73-.7v3Zm2.56-2.81a1.63,1.63,0,0,0,1.48-.89,2.29,2.29,0,0,0,0-2,1.58,1.58,0,0,0-1.48-.89,1.72,1.72,0,0,0-.88.23,1.74,1.74,0,0,0-.6.66,2.29,2.29,0,0,0,0,2,1.63,1.63,0,0,0,1.48.89Z" transform="translate(-53.2 -28)" fill="#f5f5f5"/>
      <path id="Path_18560" data-name="Path 18560" d="M137.39,37.44V30.28h.76l.08.82a2.28,2.28,0,0,1,.69-.65,2,2,0,0,1,1.13-.29,2.37,2.37,0,0,1,1.29.34,2.41,2.41,0,0,1,.86.93,2.91,2.91,0,0,1,.3,1.34,2.86,2.86,0,0,1-.3,1.33,2.31,2.31,0,0,1-.86.92,2.4,2.4,0,0,1-1.3.34,2.21,2.21,0,0,1-1.08-.25,1.76,1.76,0,0,1-.73-.7v3ZM140,34.63a1.63,1.63,0,0,0,1.48-.89,2.29,2.29,0,0,0,0-2,1.58,1.58,0,0,0-1.48-.89,1.72,1.72,0,0,0-.88.23,1.74,1.74,0,0,0-.6.66,2.29,2.29,0,0,0,0,2,1.63,1.63,0,0,0,1.48.89Z" transform="translate(-53.2 -28)" fill="#f5f5f5"/>
    </g>
  </g>
</svg>
