<svg id="Group_9" data-name="Group 9" xmlns="http://www.w3.org/2000/svg" width="168.28" height="52.33" viewBox="0 0 168.28 52.33">
  <g id="Group_10577" data-name="Group 10577">
    <rect id="Rectangle_1051" data-name="Rectangle 1051" width="52.33" height="52.33" rx="12" fill="#1cb260"/>
    <path id="Path_16803" data-name="Path 16803" d="M40.75,30.64V21.29a3.51,3.51,0,1,0-3-6.13l-8.15-4.7a2.23,2.23,0,0,0,0-.37,3.51,3.51,0,0,0-7,0,3.4,3.4,0,0,0,0,.45l-8.07,4.65A3.51,3.51,0,0,0,10,20.53a3.42,3.42,0,0,0,1.51.75v9.37A3.51,3.51,0,1,0,13.04,37.5a3.61,3.61,0,0,0,1.49-.741l8.26,4.76.06-.1a5.89,5.89,0,0,0,1.95,3.51v.64h.71v-.28A2.184,2.184,0,0,0,27,45.2v.37h.71v-.84a6.13,6.13,0,0,0,1.69-3.24l8.31-4.8a3.51,3.51,0,1,0,4.67-5.24,3.44,3.44,0,0,0-1.6-.81ZM40,15.82a2.08,2.08,0,1,1-2.08,2.08h0A2.08,2.08,0,0,1,40,15.82ZM29.13,11.91l7.71,4.45A3.5,3.5,0,0,0,36.7,19l-5.22,3.05a6.39,6.39,0,0,0-4.61-2.84V13.52a3.52,3.52,0,0,0,2.26-1.61Zm-3-3.86A2.08,2.08,0,1,1,24,10.13h0a2.08,2.08,0,0,1,2.12-2.08ZM23.18,12a3.5,3.5,0,0,0,2.19,1.54v5.7a6.4,6.4,0,0,0-4.61,2.89l-5.16-3a3.49,3.49,0,0,0-.09-2.69Zm-13,5.93A2.08,2.08,0,1,1,12.3,20h0a2.08,2.08,0,0,1-2.08-2.1ZM12.3,36.19a2.08,2.08,0,1,1,2.08-2.08h0a2.08,2.08,0,0,1-2.08,2.08Zm.75-5.55V21.29a3.45,3.45,0,0,0,1.73-.93l5.33,3.1a6.31,6.31,0,0,0,.36,5.05L15,31.75a3.55,3.55,0,0,0-1.9-1.11Zm16.58,9V39.1c0-3-1.17-5.54-2.74-6.17V27.55a2.1,2.1,0,1,0-1.42,0v5.3c-1.62.55-2.85,3.12-2.85,6.21v.63L15.5,35.56a3.64,3.64,0,0,0,.33-1.49,3.48,3.48,0,0,0-.15-1l5.64-3.3A6.39,6.39,0,0,0,25,31.86V30.37a4.93,4.93,0,1,1,2.42,0v1.51a6.39,6.39,0,0,0,3.5-2l5.71,3.33a3.52,3.52,0,0,0,.15,2.35Zm7.72-7.81-5.56-3.24a6.35,6.35,0,0,0,.36-5.15l5.33-3.12a3.49,3.49,0,0,0,1.77,1v9.37a3.5,3.5,0,0,0-1.9,1.14ZM40,36.19a2.08,2.08,0,1,1,2.08-2.08h0A2.08,2.08,0,0,1,40,36.19Z" fill="#fff"/>
  </g>
  <g id="Taizo">
    <g id="Group_11867" data-name="Group 11867">
      <path id="Path_18519" data-name="Path 18519" d="M70.86,13.5H66.67V25.08H62.41V13.5H58.23V9.68H70.86Z" fill="#393939"/>
      <path id="Path_18520" data-name="Path 18520" d="M83.5,13.19V25.07H80.34L80,24.23a5.64,5.64,0,0,1-3.59,1.24,6.06,6.06,0,0,1-6.23-6.34,6,6,0,0,1,6.23-6.3A5.63,5.63,0,0,1,80,14.11l.42-.92Zm-3.89,6A2.66,2.66,0,1,0,77,21.85a2.61,2.61,0,0,0,2.61-2.71Z" fill="#393939"/>
      <path id="Path_18521" data-name="Path 18521" d="M86.08,13.2h4.09V25.08H86.08Zm0-5h4v3.47h-4Z" fill="#393939"/>
      <path id="Path_18522" data-name="Path 18522" d="M102.17,21.44v3.64H91.91v-.61l4.55-7.66H92.31V13.2h9.81v.67l-4.49,7.57Z" fill="#393939"/>
      <path id="Path_18523" data-name="Path 18523" d="M103.23,19.14c0-3.68,2.79-6.33,6.66-6.33s6.66,2.65,6.66,6.33-2.8,6.33-6.66,6.33S103.23,22.81,103.23,19.14Zm9.22,0a2.56,2.56,0,1,0-2.56,2.56,2.56,2.56,0,0,0,2.56-2.56Z" fill="#393939"/>
    </g>
  </g>
  <g id="A_simple_hiring_app" data-name="A simple hiring app">
    <g id="Group_11868" data-name="Group 11868">
      <path id="Path_18524" data-name="Path 18524" d="M61,40.76l3.09-8.4h1.07l3.08,8.4H67.13l-.76-2.16H62.79L62,40.76Zm2.13-3h3l-1.49-4.15Z" fill="#393939"/>
      <path id="Path_18525" data-name="Path 18525" d="M75.09,40.91a2.88,2.88,0,0,1-1.78-.54,2.11,2.11,0,0,1-.82-1.47h1a1.35,1.35,0,0,0,.5.81,1.59,1.59,0,0,0,1.08.35,1.37,1.37,0,0,0,.94-.27.85.85,0,0,0,.3-.65.71.71,0,0,0-.39-.72,5.539,5.539,0,0,0-1.1-.32,5.8,5.8,0,0,1-1-.28,2.12,2.12,0,0,1-.8-.51,1.18,1.18,0,0,1-.33-.87,1.61,1.61,0,0,1,.58-1.27,2.32,2.32,0,0,1,1.58-.5,2.52,2.52,0,0,1,1.56.47,1.94,1.94,0,0,1,.7,1.35h-1a1,1,0,0,0-.39-.71,1.4,1.4,0,0,0-.88-.26,1.32,1.32,0,0,0-.83.23.71.71,0,0,0-.3.6.62.62,0,0,0,.38.56,4,4,0,0,0,1,.35,7.476,7.476,0,0,1,1,.29,2,2,0,0,1,.81.52,1.42,1.42,0,0,1,.32,1,1.61,1.61,0,0,1-.61,1.33,2.55,2.55,0,0,1-1.52.51Z" fill="#393939"/>
      <path id="Path_18526" data-name="Path 18526" d="M79.54,33.49a.667.667,0,0,1-.69-.69.62.62,0,0,1,.19-.48.7.7,0,0,1,.5-.2.72.72,0,0,1,.5.2.63.63,0,0,1,.2.48.66.66,0,0,1-.2.49A.68.68,0,0,1,79.54,33.49ZM79,40.76V34.81h1v5.95Z" fill="#393939"/>
      <path id="Path_18527" data-name="Path 18527" d="M81.92,40.76V34.81h.91l.07.87a2.05,2.05,0,0,1,.77-.75,2.27,2.27,0,0,1,1.08-.26A2.37,2.37,0,0,1,86,35a1.85,1.85,0,0,1,.78.87,2.35,2.35,0,0,1,2-1.16,2.29,2.29,0,0,1,1.71.64,2.73,2.73,0,0,1,.63,2v3.48h-1V37.39A2.26,2.26,0,0,0,89.77,36a1.3,1.3,0,0,0-1.07-.47,1.53,1.53,0,0,0-1.2.56,2.41,2.41,0,0,0-.5,1.59v3.08H86V37.39A2.2,2.2,0,0,0,85.65,36a1.29,1.29,0,0,0-1.07-.47,1.5,1.5,0,0,0-1.18.56,2.36,2.36,0,0,0-.47,1.59v3.08Z" fill="#393939"/>
      <path id="Path_18528" data-name="Path 18528" d="M92.78,43.4V34.81h.91l.1,1a2.68,2.68,0,0,1,.82-.78A2.37,2.37,0,0,1,96,34.67a2.83,2.83,0,0,1,1.55.41,2.73,2.73,0,0,1,1,1.11,3.38,3.38,0,0,1,.37,1.61,3.34,3.34,0,0,1-.37,1.6,2.69,2.69,0,0,1-1,1.11,3,3,0,0,1-1.55.4,2.74,2.74,0,0,1-1.3-.3,2.07,2.07,0,0,1-.87-.84V43.4ZM95.85,40a1.914,1.914,0,0,0,1.78-1.07,2.52,2.52,0,0,0,.26-1.17,2.6,2.6,0,0,0-.26-1.18,2,2,0,0,0-.72-.78,2.08,2.08,0,0,0-2.12,0,2,2,0,0,0-.72.78,2.6,2.6,0,0,0-.26,1.18A2.52,2.52,0,0,0,94.07,39a1.718,1.718,0,0,0,1.78,1Z" fill="#393939"/>
      <path id="Path_18529" data-name="Path 18529" d="M100.43,40.76V32.12h1v8.64Z" fill="#393939"/>
      <path id="Path_18530" data-name="Path 18530" d="M105.89,40.91a2.93,2.93,0,0,1-1.51-.39,2.8,2.8,0,0,1-1-1.09,3.82,3.82,0,0,1,0-3.28,2.67,2.67,0,0,1,1-1.09,3,3,0,0,1,1.54-.39,2.78,2.78,0,0,1,1.49.39,2.71,2.71,0,0,1,1,1,3,3,0,0,1,.33,1.37v.27a2.631,2.631,0,0,0,0,.3H104a2.39,2.39,0,0,0,.32,1.13,1.85,1.85,0,0,0,.71.68,1.88,1.88,0,0,0,.9.23,1.83,1.83,0,0,0,1-.29,1.64,1.64,0,0,0,.61-.78h1a2.68,2.68,0,0,1-.92,1.37A2.65,2.65,0,0,1,105.89,40.91Zm0-5.39a2,2,0,0,0-1.27.44,1.76,1.76,0,0,0-.65,1.28h3.75a1.72,1.72,0,0,0-.55-1.26,1.85,1.85,0,0,0-1.28-.46Z" fill="#393939"/>
      <path id="Path_18531" data-name="Path 18531" d="M113.47,40.76V32.12h1v3.71a2.16,2.16,0,0,1,.86-.86,2.43,2.43,0,0,1,1.2-.3,2.18,2.18,0,0,1,1.65.64,2.73,2.73,0,0,1,.63,2v3.48h-1v-3.4q0-1.86-1.5-1.86a1.74,1.74,0,0,0-1.31.56,2.23,2.23,0,0,0-.53,1.59v3.08Z" fill="#393939"/>
      <path id="Path_18532" data-name="Path 18532" d="M121.06,33.49a.667.667,0,0,1-.69-.69.62.62,0,0,1,.19-.48.7.7,0,0,1,.5-.2.68.68,0,0,1,.49.2.6.6,0,0,1,.21.48.7.7,0,0,1-.7.69Zm-.5,7.27V34.81h1v5.95Z" fill="#393939"/>
      <path id="Path_18533" data-name="Path 18533" d="M123.44,40.76V34.81h.91l.08,1.14a2.22,2.22,0,0,1,.84-.93,2.55,2.55,0,0,1,1.4-.35v1h-.28a2.54,2.54,0,0,0-1,.19,1.44,1.44,0,0,0-.71.63,2.35,2.35,0,0,0-.26,1.22v3Z" fill="#393939"/>
      <path id="Path_18534" data-name="Path 18534" d="M128.53,33.49a.65.65,0,0,1-.5-.2.66.66,0,0,1-.2-.49.63.63,0,0,1,.2-.48.69.69,0,0,1,.5-.2.7.7,0,0,1,.49.2.63.63,0,0,1,.2.48.683.683,0,0,1-.69.69ZM128,40.76V34.81h1v5.95Z" fill="#393939"/>
      <path id="Path_18535" data-name="Path 18535" d="M130.9,40.76V34.81h.91l.06,1.07a2.23,2.23,0,0,1,.83-.89,2.4,2.4,0,0,1,1.23-.32,2.24,2.24,0,0,1,1.68.64,2.73,2.73,0,0,1,.63,2v3.48h-1v-3.4q0-1.86-1.53-1.86a1.67,1.67,0,0,0-1.28.56,2.27,2.27,0,0,0-.51,1.59v3.08Z" fill="#393939"/>
      <path id="Path_18536" data-name="Path 18536" d="M140.24,38.89a3,3,0,0,1-.93-.13l-.6.56a1.28,1.28,0,0,0,.33.17,5.41,5.41,0,0,0,.57.12l1,.11a2.85,2.85,0,0,1,1.71.55,1.56,1.56,0,0,1,.52,1.23,1.85,1.85,0,0,1-.28,1,2.13,2.13,0,0,1-.87.77,3.21,3.21,0,0,1-1.49.3,4.48,4.48,0,0,1-1.43-.21,2,2,0,0,1-1-.64,1.64,1.64,0,0,1-.35-1.07,1.74,1.74,0,0,1,.18-.73,2.07,2.07,0,0,1,.67-.74,3.139,3.139,0,0,1-.45-.23,3,3,0,0,1-.34-.28v-.28l1-1a2,2,0,0,1-.71-1.58,2.16,2.16,0,0,1,.28-1.07A2,2,0,0,1,139,35a2.7,2.7,0,0,1,1.29-.28,3,3,0,0,1,.93.14h2.2v.76H142.3a1.92,1.92,0,0,1,.35,1.16,2.06,2.06,0,0,1-.28,1.07,2.09,2.09,0,0,1-.8.76,2.66,2.66,0,0,1-1.33.28Zm-1.75,2.64a1,1,0,0,0,.5.9,2.55,2.55,0,0,0,1.26.29,2,2,0,0,0,1.19-.32,1,1,0,0,0,.45-.87.85.85,0,0,0-.31-.66,1.89,1.89,0,0,0-1.15-.33l-1.14-.12a1.44,1.44,0,0,0-.65.57A1.23,1.23,0,0,0,138.49,41.53Zm1.75-3.47a1.48,1.48,0,0,0,1-.33,1.37,1.37,0,0,0,0-1.89,1.48,1.48,0,0,0-1-.33,1.52,1.52,0,0,0-1,.33,1.37,1.37,0,0,0,0,1.89,1.52,1.52,0,0,0,1,.33Z" fill="#393939"/>
      <path id="Path_18537" data-name="Path 18537" d="M149.91,40.91a2.82,2.82,0,0,1-1.24-.25,1.74,1.74,0,0,1-1-1.59,1.6,1.6,0,0,1,.7-1.4,3.19,3.19,0,0,1,1.89-.49h1.61V37.1a1.56,1.56,0,0,0-.41-1.18,1.46,1.46,0,0,0-1.09-.4,1.77,1.77,0,0,0-1,.29,1.33,1.33,0,0,0-.54.86h-1a1.94,1.94,0,0,1,.44-1.09,2.48,2.48,0,0,1,.94-.68,3.24,3.24,0,0,1,1.2-.23,2.25,2.25,0,0,1,2.51,2.43v3.66H152V39.7a2.31,2.31,0,0,1-.74.85,2.13,2.13,0,0,1-1.35.36Zm.16-.85a1.66,1.66,0,0,0,1-.3,2,2,0,0,0,.63-.78,2.5,2.5,0,0,0,.21-1h-1.52a2,2,0,0,0-1.26.3,1,1,0,0,0-.36.76.9.9,0,0,0,.34.75,1.48,1.48,0,0,0,.96.27Z" fill="#393939"/>
      <path id="Path_18538" data-name="Path 18538" d="M154.54,43.4V34.81h.91l.1,1a2.8,2.8,0,0,1,.82-.78,2.39,2.39,0,0,1,1.36-.35,2.8,2.8,0,0,1,2.58,1.52,3.5,3.5,0,0,1,.36,1.61,3.46,3.46,0,0,1-.36,1.6,2.83,2.83,0,0,1-1,1.11,3.07,3.07,0,0,1-1.56.4,2.74,2.74,0,0,1-1.3-.3,2.07,2.07,0,0,1-.87-.84V43.4Zm3.07-3.4a1.914,1.914,0,0,0,1.78-1.07,2.41,2.41,0,0,0,.26-1.17,2.47,2.47,0,0,0-.26-1.18,1.96,1.96,0,0,0-1.78-1.07,1.92,1.92,0,0,0-1.05.29,1.87,1.87,0,0,0-.72.78,2.48,2.48,0,0,0-.27,1.18,2.41,2.41,0,0,0,.27,1.17A1.91,1.91,0,0,0,157.61,40Z" fill="#393939"/>
      <path id="Path_18539" data-name="Path 18539" d="M162.2,43.4V34.81h.91l.1,1A2.68,2.68,0,0,1,164,35a2.37,2.37,0,0,1,1.36-.35,2.83,2.83,0,0,1,1.55.41,2.73,2.73,0,0,1,1,1.11,3.38,3.38,0,0,1,.37,1.61,3.34,3.34,0,0,1-.37,1.6,2.69,2.69,0,0,1-1,1.11,3,3,0,0,1-1.55.4,2.74,2.74,0,0,1-1.3-.3,2.07,2.07,0,0,1-.87-.84V43.4Zm3.07-3.4A1.872,1.872,0,0,0,167,39a2.41,2.41,0,0,0,.27-1.17,2.48,2.48,0,0,0-.27-1.18,1.92,1.92,0,0,0-.71-.78,2.08,2.08,0,0,0-2.12,0,2,2,0,0,0-.72.78,2.6,2.6,0,0,0-.26,1.18,2.52,2.52,0,0,0,.26,1.17,1.732,1.732,0,0,0,1.82,1Z" fill="#393939"/>
    </g>
  </g>
</svg>
