<svg width="23" height="24" viewBox="0 0 23 24" fill="none" xmlns="http://www.w3.org/2000/svg">
<g clip-path="url(#clip0_3_124)">
<path fill-rule="evenodd" clip-rule="evenodd" d="M20.7 20.05C20.7 20.6848 20.1848 21.2 19.55 21.2H3.45C2.8152 21.2 2.3 20.6848 2.3 20.05V8.55C2.3 7.9152 2.8152 7.4 3.45 7.4H19.55C20.1848 7.4 20.7 7.9152 20.7 8.55V20.05ZM20.7 2.8V1.65C20.7 1.0152 20.1848 0.5 19.55 0.5C18.9152 0.5 18.4 1.0152 18.4 1.65V2.8H12.65V1.65C12.65 1.0152 12.1348 0.5 11.5 0.5C10.8652 0.5 10.35 1.0152 10.35 1.65V2.8H4.6V1.65C4.6 1.0152 4.0848 0.5 3.45 0.5C2.8152 0.5 2.3 1.0152 2.3 1.65V2.8C1.02925 2.8 0 3.82925 0 5.1V21.2C0 22.4696 1.02925 23.5 2.3 23.5H20.7C21.9707 23.5 23 22.4696 23 21.2V5.1C23 3.82925 21.9707 2.8 20.7 2.8Z" fill="white"/>
<path d="M9.30277 16.2862C6.18303 13.1659 6.33231 10.8062 7.75954 9.73602L8.07575 9.5005C8.15643 9.44114 8.24821 9.39859 8.34565 9.37538C8.44309 9.35216 8.54419 9.34875 8.64297 9.36536C8.74175 9.38196 8.83619 9.41824 8.92068 9.47204C9.00517 9.52583 9.07799 9.59605 9.13483 9.67853L9.93116 10.8243C10.0377 10.9777 10.0838 11.165 10.0605 11.3503C10.0372 11.5356 9.94626 11.7057 9.80508 11.828L9.03851 12.4906C8.84686 12.6566 8.75306 12.9082 8.8393 13.1468C8.99866 13.5906 9.38548 14.3738 10.3003 15.2881C11.2152 16.203 11.9979 16.5898 12.4417 16.7496C12.6807 16.8354 12.9324 16.7421 13.0983 16.5499L13.761 15.7844C13.8832 15.6432 14.0533 15.5522 14.2386 15.5289C14.4239 15.5056 14.6112 15.5517 14.7646 15.6583L15.9124 16.4551C15.9948 16.5118 16.065 16.5844 16.1188 16.6687C16.1726 16.753 16.2088 16.8472 16.2255 16.9458C16.2422 17.0444 16.2388 17.1454 16.2157 17.2427C16.1926 17.34 16.1502 17.4316 16.091 17.5122L15.8539 17.8314C14.7843 19.2576 12.4235 19.4064 9.30277 16.2862Z" fill="white"/>
</g>
<defs>
<clipPath id="clip0_3_124">
<rect width="23" height="23" fill="white" transform="translate(0 0.5)"/>
</clipPath>
</defs>
</svg>
