<svg width="23" height="24" viewBox="0 0 23 24" fill="none" xmlns="http://www.w3.org/2000/svg">
<g clip-path="url(#clip0_22_74)">
<path fill-rule="evenodd" clip-rule="evenodd" d="M20.7 19.8365C20.7 20.4713 20.1848 20.9865 19.55 20.9865H3.45C2.8152 20.9865 2.3 20.4713 2.3 19.8365V8.3365C2.3 7.7017 2.8152 7.1865 3.45 7.1865H19.55C20.1848 7.1865 20.7 7.7017 20.7 8.3365V19.8365ZM20.7 2.5865V1.4365C20.7 0.801699 20.1848 0.286499 19.55 0.286499C18.9152 0.286499 18.4 0.801699 18.4 1.4365V2.5865H12.65V1.4365C12.65 0.801699 12.1348 0.286499 11.5 0.286499C10.8652 0.286499 10.35 0.801699 10.35 1.4365V2.5865H4.6V1.4365C4.6 0.801699 4.0848 0.286499 3.45 0.286499C2.8152 0.286499 2.3 0.801699 2.3 1.4365V2.5865C1.02925 2.5865 0 3.61575 0 4.8865V20.9865C0 22.2561 1.02925 23.2865 2.3 23.2865H20.7C21.9707 23.2865 23 22.2561 23 20.9865V4.8865C23 3.61575 21.9707 2.5865 20.7 2.5865Z" fill="white"/>
<path d="M9.30274 16.0726C6.183 12.9524 6.33228 10.5927 7.75951 9.52249L8.07572 9.28697C8.1564 9.22761 8.24818 9.18506 8.34562 9.16184C8.44306 9.13863 8.54416 9.13522 8.64294 9.15183C8.74172 9.16843 8.83616 9.20471 8.92065 9.2585C9.00514 9.3123 9.07796 9.38252 9.1348 9.465L9.93113 10.6108C10.0377 10.7642 10.0838 10.9515 10.0605 11.1368C10.0372 11.3221 9.94622 11.4922 9.80505 11.6144L9.03848 12.2771C8.84683 12.443 8.75303 12.6947 8.83927 12.9332C8.99863 13.377 9.38545 14.1602 10.3003 15.0746C11.2151 15.9894 11.9978 16.3762 12.4416 16.5361C12.6807 16.6218 12.9324 16.5285 13.0983 16.3364L13.761 15.5708C13.8832 15.4297 14.0533 15.3387 14.2386 15.3154C14.4239 15.2921 14.6112 15.3382 14.7646 15.4448L15.9124 16.2416C15.9948 16.2982 16.065 16.3709 16.1187 16.4552C16.1725 16.5395 16.2088 16.6337 16.2255 16.7323C16.2421 16.8309 16.2388 16.9318 16.2157 17.0291C16.1926 17.1264 16.1501 17.2181 16.0909 17.2986L15.8539 17.6179C14.7842 19.0441 12.4235 19.1929 9.30274 16.0726Z" fill="white"/>
</g>
<defs>
<clipPath id="clip0_22_74">
<rect width="23" height="23" fill="white" transform="translate(0 0.286499)"/>
</clipPath>
</defs>
</svg>
