<svg width="23" height="24" viewBox="0 0 23 24" fill="none" xmlns="http://www.w3.org/2000/svg">
<g clip-path="url(#clip0_22_55)">
<path fill-rule="evenodd" clip-rule="evenodd" d="M20.7 20.05C20.7 20.6848 20.1848 21.2 19.55 21.2H3.45C2.8152 21.2 2.3 20.6848 2.3 20.05V8.55C2.3 7.9152 2.8152 7.4 3.45 7.4H19.55C20.1848 7.4 20.7 7.9152 20.7 8.55V20.05ZM20.7 2.8V1.65C20.7 1.0152 20.1848 0.5 19.55 0.5C18.9152 0.5 18.4 1.0152 18.4 1.65V2.8H12.65V1.65C12.65 1.0152 12.1348 0.5 11.5 0.5C10.8652 0.5 10.35 1.0152 10.35 1.65V2.8H4.6V1.65C4.6 1.0152 4.0848 0.5 3.45 0.5C2.8152 0.5 2.3 1.0152 2.3 1.65V2.8C1.02925 2.8 0 3.82925 0 5.1V21.2C0 22.4696 1.02925 23.5 2.3 23.5H20.7C21.9707 23.5 23 22.4696 23 21.2V5.1C23 3.82925 21.9707 2.8 20.7 2.8Z" fill="white"/>
<path d="M9.30274 16.2861C6.183 13.1659 6.33228 10.8062 7.75951 9.73599L8.07572 9.50047C8.1564 9.44111 8.24818 9.39856 8.34562 9.37535C8.44305 9.35213 8.54416 9.34872 8.64294 9.36533C8.74172 9.38193 8.83615 9.41821 8.92064 9.472C9.00514 9.5258 9.07796 9.59602 9.1348 9.6785L9.93112 10.8243C10.0377 10.9777 10.0838 11.165 10.0605 11.3503C10.0372 11.5356 9.94622 11.7057 9.80504 11.8279L9.03847 12.4906C8.84683 12.6565 8.75303 12.9082 8.83926 13.1467C8.99863 13.5905 9.38545 14.3737 10.3003 15.2881C11.2151 16.2029 11.9978 16.5897 12.4416 16.7496C12.6807 16.8353 12.9323 16.742 13.0983 16.5499L13.761 15.7843C13.8832 15.6432 14.0533 15.5522 14.2386 15.5289C14.4239 15.5056 14.6112 15.5517 14.7646 15.6583L15.9124 16.4551C15.9948 16.5117 16.065 16.5844 16.1187 16.6687C16.1725 16.753 16.2088 16.8472 16.2255 16.9458C16.2421 17.0444 16.2388 17.1453 16.2157 17.2426C16.1926 17.3399 16.1501 17.4316 16.0909 17.5121L15.8539 17.8314C14.7842 19.2576 12.4235 19.4064 9.30274 16.2861Z" fill="white"/>
</g>
<defs>
<clipPath id="clip0_22_55">
<rect width="23" height="23" fill="white" transform="translate(0 0.5)"/>
</clipPath>
</defs>
</svg>
