<svg width="17" height="17" viewBox="0 0 17 17" fill="none" xmlns="http://www.w3.org/2000/svg">
<g clip-path="url(#clip0_1_47)">
<path fill-rule="evenodd" clip-rule="evenodd" d="M16.4323 14.1941C15.9384 15.6949 14.0035 16.4434 12.6211 16.3186C10.7331 16.1479 8.67869 15.1465 7.11922 14.0436C4.82696 12.4223 2.67975 9.91432 1.42855 7.25299C0.544286 5.37245 0.345888 3.06035 1.66109 1.34622C2.14749 0.712617 2.67335 0.374225 3.46375 0.334758C4.56029 0.281425 4.71389 0.908733 5.09042 1.8858C5.37096 2.61647 5.74535 3.3618 5.95442 4.11913C6.34589 5.53247 4.97735 5.59154 4.80455 6.74674C4.69682 7.47527 5.58002 8.45227 5.97896 8.97174C6.76082 9.98934 7.70055 10.867 8.76082 11.5348C9.36775 11.9177 10.348 12.6077 11.0435 12.2269C12.1144 11.6403 12.0131 9.8345 13.5107 10.4457C14.2862 10.7614 15.0371 11.2171 15.7774 11.616C16.9219 12.2315 16.8686 12.8693 16.4323 14.1941C16.7587 13.2043 16.1059 15.184 16.4323 14.1941Z" fill="white"/>
</g>
<defs>
<clipPath id="clip0_1_47">
<rect width="16" height="16" fill="white" transform="translate(0.719971 0.331604)"/>
</clipPath>
</defs>
</svg>
