<svg width="30" height="31" viewBox="0 0 30 31" fill="none" xmlns="http://www.w3.org/2000/svg">
<path d="M19.5001 15.5733C19.5001 16.7668 19.026 17.9114 18.1821 18.7553C17.3382 19.5992 16.1936 20.0733 15.0001 20.0733C13.8066 20.0733 12.662 19.5992 11.8181 18.7553C10.9742 17.9114 10.5001 16.7668 10.5001 15.5733C10.5001 15.3168 10.5271 15.0663 10.5736 14.8233H9.0001V20.8188C9.0001 21.2358 9.3376 21.5733 9.7546 21.5733H20.2471C20.4469 21.5729 20.6385 21.4933 20.7796 21.3518C20.9208 21.2104 21.0001 21.0187 21.0001 20.8188V14.8233H19.4266C19.4731 15.0663 19.5001 15.3168 19.5001 15.5733V15.5733ZM15.0001 18.5733C15.3942 18.5732 15.7844 18.4955 16.1484 18.3446C16.5124 18.1937 16.8432 17.9726 17.1217 17.6939C17.4003 17.4152 17.6213 17.0843 17.772 16.7202C17.9227 16.3561 18.0002 15.9659 18.0001 15.5718C18 15.1778 17.9223 14.7876 17.7714 14.4236C17.6205 14.0595 17.3994 13.7288 17.1207 13.4502C16.842 13.1716 16.5111 12.9507 16.147 12.8C15.7829 12.6493 15.3927 12.5717 14.9986 12.5718C14.2028 12.572 13.4396 12.8884 12.877 13.4513C12.3144 14.0142 11.9984 14.7775 11.9986 15.5733C11.9988 16.3692 12.3151 17.1324 12.878 17.695C13.4409 18.2576 14.2043 18.5735 15.0001 18.5733V18.5733ZM18.6001 12.4233H20.3986C20.5181 12.4233 20.6327 12.376 20.7173 12.2916C20.802 12.2073 20.8497 12.0928 20.8501 11.9733V10.1748C20.8501 10.0551 20.8025 9.94025 20.7179 9.85558C20.6332 9.77091 20.5183 9.72334 20.3986 9.72334H18.6001C18.4804 9.72334 18.3655 9.77091 18.2808 9.85558C18.1962 9.94025 18.1486 10.0551 18.1486 10.1748V11.9733C18.1501 12.2208 18.3526 12.4233 18.6001 12.4233V12.4233ZM15.0001 1.17334C11.181 1.17334 7.51828 2.69048 4.81776 5.391C2.11724 8.09153 0.600098 11.7542 0.600098 15.5733C0.600098 19.3925 2.11724 23.0552 4.81776 25.7557C7.51828 28.4562 11.181 29.9733 15.0001 29.9733C16.8911 29.9733 18.7637 29.6009 20.5107 28.8772C22.2578 28.1535 23.8453 27.0928 25.1824 25.7557C26.5196 24.4185 27.5803 22.8311 28.304 21.084C29.0276 19.3369 29.4001 17.4644 29.4001 15.5733C29.4001 13.6823 29.0276 11.8098 28.304 10.0627C27.5803 8.31561 26.5196 6.72817 25.1824 5.391C23.8453 4.05384 22.2578 2.99314 20.5107 2.26947C18.7637 1.54581 16.8911 1.17334 15.0001 1.17334V1.17334ZM22.5001 21.4068C22.5001 22.3233 21.7501 23.0733 20.8336 23.0733H9.1666C8.2501 23.0733 7.5001 22.3233 7.5001 21.4068V9.73984C7.5001 8.82334 8.2501 8.07334 9.1666 8.07334H20.8336C21.7501 8.07334 22.5001 8.82334 22.5001 9.73984V21.4068V21.4068Z" fill="white"/>
</svg>
