<svg width="169" height="53" viewBox="0 0 169 53" fill="none" xmlns="http://www.w3.org/2000/svg">
<path d="M61.36 40.1682L64.456 31.7682H65.524L68.608 40.1682H67.54L66.772 38.0082H63.196L62.416 40.1682H61.36ZM63.496 37.1922H66.472L64.984 33.0402L63.496 37.1922Z" fill="#393939"/>
<path d="M75.4925 40.3122C74.7805 40.3122 74.1885 40.1322 73.7165 39.7722C73.2445 39.4122 72.9685 38.9242 72.8885 38.3082H73.9205C73.9845 38.6202 74.1485 38.8922 74.4125 39.1242C74.6845 39.3482 75.0485 39.4602 75.5045 39.4602C75.9285 39.4602 76.2405 39.3722 76.4405 39.1962C76.6405 39.0122 76.7405 38.7962 76.7405 38.5482C76.7405 38.1882 76.6085 37.9482 76.3445 37.8282C76.0885 37.7082 75.7245 37.6002 75.2525 37.5042C74.9325 37.4402 74.6125 37.3482 74.2925 37.2282C73.9725 37.1082 73.7045 36.9402 73.4885 36.7242C73.2725 36.5002 73.1645 36.2082 73.1645 35.8482C73.1645 35.3282 73.3565 34.9042 73.7405 34.5762C74.1325 34.2402 74.6605 34.0722 75.3245 34.0722C75.9565 34.0722 76.4725 34.2322 76.8725 34.5522C77.2805 34.8642 77.5165 35.3122 77.5805 35.8962H76.5845C76.5445 35.5922 76.4125 35.3562 76.1885 35.1882C75.9725 35.0122 75.6805 34.9242 75.3125 34.9242C74.9525 34.9242 74.6725 35.0002 74.4725 35.1522C74.2805 35.3042 74.1845 35.5042 74.1845 35.7522C74.1845 35.9922 74.3085 36.1802 74.5565 36.3162C74.8125 36.4522 75.1565 36.5682 75.5885 36.6642C75.9565 36.7442 76.3045 36.8442 76.6325 36.9642C76.9685 37.0762 77.2405 37.2482 77.4485 37.4802C77.6645 37.7042 77.7725 38.0322 77.7725 38.4642C77.7805 39.0002 77.5765 39.4442 77.1605 39.7962C76.7525 40.1402 76.1965 40.3122 75.4925 40.3122Z" fill="#393939"/>
<path d="M79.9445 32.8962C79.7445 32.8962 79.5765 32.8322 79.4405 32.7042C79.3125 32.5682 79.2485 32.4002 79.2485 32.2002C79.2485 32.0082 79.3125 31.8482 79.4405 31.7202C79.5765 31.5922 79.7445 31.5282 79.9445 31.5282C80.1365 31.5282 80.3005 31.5922 80.4365 31.7202C80.5725 31.8482 80.6405 32.0082 80.6405 32.2002C80.6405 32.4002 80.5725 32.5682 80.4365 32.7042C80.3005 32.8322 80.1365 32.8962 79.9445 32.8962ZM79.4405 40.1682V34.2162H80.4485V40.1682H79.4405Z" fill="#393939"/>
<path d="M82.3236 40.1682V34.2162H83.2356L83.3076 35.0802C83.4996 34.7602 83.7556 34.5122 84.0756 34.3362C84.3956 34.1602 84.7556 34.0722 85.1556 34.0722C85.6276 34.0722 86.0316 34.1682 86.3676 34.3602C86.7116 34.5522 86.9756 34.8442 87.1596 35.2362C87.3676 34.8762 87.6516 34.5922 88.0116 34.3842C88.3796 34.1762 88.7756 34.0722 89.1996 34.0722C89.9116 34.0722 90.4796 34.2882 90.9036 34.7202C91.3276 35.1442 91.5396 35.8002 91.5396 36.6882V40.1682H90.5436V36.7962C90.5436 36.1802 90.4196 35.7162 90.1716 35.4042C89.9236 35.0922 89.5676 34.9362 89.1036 34.9362C88.6236 34.9362 88.2236 35.1242 87.9036 35.5002C87.5916 35.8682 87.4356 36.3962 87.4356 37.0842V40.1682H86.4276V36.7962C86.4276 36.1802 86.3036 35.7162 86.0556 35.4042C85.8076 35.0922 85.4516 34.9362 84.9876 34.9362C84.5156 34.9362 84.1196 35.1242 83.7996 35.5002C83.4876 35.8682 83.3316 36.3962 83.3316 37.0842V40.1682H82.3236Z" fill="#393939"/>
<path d="M93.178 42.8082V34.2162H94.09L94.186 35.2002C94.378 34.9122 94.65 34.6522 95.002 34.4202C95.362 34.1882 95.818 34.0722 96.37 34.0722C96.962 34.0722 97.478 34.2082 97.918 34.4802C98.358 34.7522 98.698 35.1242 98.938 35.5962C99.186 36.0682 99.31 36.6042 99.31 37.2042C99.31 37.8042 99.186 38.3402 98.938 38.8122C98.698 39.2762 98.354 39.6442 97.906 39.9162C97.466 40.1802 96.95 40.3122 96.358 40.3122C95.87 40.3122 95.434 40.2122 95.05 40.0122C94.674 39.8122 94.386 39.5322 94.186 39.1722V42.8082H93.178ZM96.25 39.4362C96.65 39.4362 97.002 39.3442 97.306 39.1602C97.61 38.9682 97.85 38.7042 98.026 38.3682C98.202 38.0322 98.29 37.6402 98.29 37.1922C98.29 36.7442 98.202 36.3522 98.026 36.0162C97.85 35.6802 97.61 35.4202 97.306 35.2362C97.002 35.0442 96.65 34.9482 96.25 34.9482C95.85 34.9482 95.498 35.0442 95.194 35.2362C94.89 35.4202 94.65 35.6802 94.474 36.0162C94.298 36.3522 94.21 36.7442 94.21 37.1922C94.21 37.6402 94.298 38.0322 94.474 38.3682C94.65 38.7042 94.89 38.9682 95.194 39.1602C95.498 39.3442 95.85 39.4362 96.25 39.4362Z" fill="#393939"/>
<path d="M100.833 40.1682V31.5282H101.841V40.1682H100.833Z" fill="#393939"/>
<path d="M106.289 40.3122C105.721 40.3122 105.217 40.1842 104.777 39.9282C104.337 39.6642 103.989 39.3002 103.733 38.8362C103.485 38.3722 103.361 37.8242 103.361 37.1922C103.361 36.5682 103.485 36.0242 103.733 35.5602C103.981 35.0882 104.325 34.7242 104.765 34.4682C105.213 34.2042 105.729 34.0722 106.313 34.0722C106.889 34.0722 107.385 34.2042 107.801 34.4682C108.225 34.7242 108.549 35.0642 108.773 35.4882C108.997 35.9122 109.109 36.3682 109.109 36.8562C109.109 36.9442 109.105 37.0322 109.097 37.1202C109.097 37.2082 109.097 37.3082 109.097 37.4202H104.357C104.381 37.8762 104.485 38.2562 104.669 38.5602C104.861 38.8562 105.097 39.0802 105.377 39.2322C105.665 39.3842 105.969 39.4602 106.289 39.4602C106.705 39.4602 107.053 39.3642 107.333 39.1722C107.613 38.9802 107.817 38.7202 107.945 38.3922H108.941C108.781 38.9442 108.473 39.4042 108.017 39.7722C107.569 40.1322 106.993 40.3122 106.289 40.3122ZM106.289 34.9242C105.809 34.9242 105.381 35.0722 105.005 35.3682C104.637 35.6562 104.425 36.0802 104.369 36.6402H108.113C108.089 36.1042 107.905 35.6842 107.561 35.3802C107.217 35.0762 106.793 34.9242 106.289 34.9242Z" fill="#393939"/>
<path d="M113.861 40.1682V31.5282H114.869V35.2362C115.069 34.8682 115.353 34.5842 115.721 34.3842C116.089 34.1762 116.489 34.0722 116.921 34.0722C117.609 34.0722 118.161 34.2882 118.577 34.7202C118.993 35.1442 119.201 35.8002 119.201 36.6882V40.1682H118.205V36.7962C118.205 35.5562 117.705 34.9362 116.705 34.9362C116.185 34.9362 115.749 35.1242 115.397 35.5002C115.045 35.8682 114.869 36.3962 114.869 37.0842V40.1682H113.861Z" fill="#393939"/>
<path d="M121.46 32.8962C121.26 32.8962 121.092 32.8322 120.956 32.7042C120.828 32.5682 120.764 32.4002 120.764 32.2002C120.764 32.0082 120.828 31.8482 120.956 31.7202C121.092 31.5922 121.26 31.5282 121.46 31.5282C121.652 31.5282 121.816 31.5922 121.952 31.7202C122.088 31.8482 122.156 32.0082 122.156 32.2002C122.156 32.4002 122.088 32.5682 121.952 32.7042C121.816 32.8322 121.652 32.8962 121.46 32.8962ZM120.956 40.1682V34.2162H121.964V40.1682H120.956Z" fill="#393939"/>
<path d="M123.839 40.1682V34.2162H124.751L124.835 35.3562C125.019 34.9642 125.299 34.6522 125.675 34.4202C126.051 34.1882 126.515 34.0722 127.067 34.0722V35.1282H126.791C126.439 35.1282 126.115 35.1922 125.819 35.3202C125.523 35.4402 125.287 35.6482 125.111 35.9442C124.935 36.2402 124.847 36.6482 124.847 37.1682V40.1682H123.839Z" fill="#393939"/>
<path d="M128.931 32.8962C128.731 32.8962 128.563 32.8322 128.427 32.7042C128.299 32.5682 128.235 32.4002 128.235 32.2002C128.235 32.0082 128.299 31.8482 128.427 31.7202C128.563 31.5922 128.731 31.5282 128.931 31.5282C129.123 31.5282 129.287 31.5922 129.423 31.7202C129.559 31.8482 129.627 32.0082 129.627 32.2002C129.627 32.4002 129.559 32.5682 129.423 32.7042C129.287 32.8322 129.123 32.8962 128.931 32.8962ZM128.427 40.1682V34.2162H129.435V40.1682H128.427Z" fill="#393939"/>
<path d="M131.31 40.1682V34.2162H132.222L132.282 35.2842C132.474 34.9082 132.75 34.6122 133.11 34.3962C133.47 34.1802 133.878 34.0722 134.334 34.0722C135.038 34.0722 135.598 34.2882 136.014 34.7202C136.438 35.1442 136.65 35.8002 136.65 36.6882V40.1682H135.642V36.7962C135.642 35.5562 135.13 34.9362 134.106 34.9362C133.594 34.9362 133.166 35.1242 132.822 35.5002C132.486 35.8682 132.318 36.3962 132.318 37.0842V40.1682H131.31Z" fill="#393939"/>
<path d="M140.649 38.2962C140.313 38.2962 140.005 38.2522 139.725 38.1642L139.125 38.7282C139.213 38.7922 139.321 38.8482 139.449 38.8962C139.585 38.9362 139.777 38.9762 140.025 39.0162C140.273 39.0482 140.621 39.0842 141.069 39.1242C141.869 39.1802 142.441 39.3642 142.785 39.6762C143.129 39.9882 143.301 40.3962 143.301 40.9002C143.301 41.2442 143.205 41.5722 143.013 41.8842C142.829 42.1962 142.541 42.4522 142.149 42.6522C141.765 42.8522 141.269 42.9522 140.661 42.9522C140.125 42.9522 139.649 42.8802 139.233 42.7362C138.817 42.6002 138.493 42.3882 138.261 42.1002C138.029 41.8202 137.913 41.4642 137.913 41.0322C137.913 40.8082 137.973 40.5642 138.093 40.3002C138.213 40.0442 138.437 39.8002 138.765 39.5682C138.589 39.4962 138.437 39.4202 138.309 39.3402C138.189 39.2522 138.077 39.1562 137.973 39.0522V38.7762L138.993 37.7682C138.521 37.3682 138.285 36.8402 138.285 36.1842C138.285 35.7922 138.377 35.4362 138.561 35.1162C138.745 34.7962 139.013 34.5442 139.365 34.3602C139.717 34.1682 140.145 34.0722 140.649 34.0722C140.993 34.0722 141.305 34.1202 141.585 34.2162H143.781V34.9722L142.665 35.0202C142.897 35.3562 143.013 35.7442 143.013 36.1842C143.013 36.5762 142.917 36.9322 142.725 37.2522C142.541 37.5722 142.273 37.8282 141.921 38.0202C141.577 38.2042 141.153 38.2962 140.649 38.2962ZM140.649 37.4682C141.073 37.4682 141.409 37.3602 141.657 37.1442C141.913 36.9202 142.041 36.6002 142.041 36.1842C142.041 35.7762 141.913 35.4642 141.657 35.2482C141.409 35.0242 141.073 34.9122 140.649 34.9122C140.217 34.9122 139.873 35.0242 139.617 35.2482C139.369 35.4642 139.245 35.7762 139.245 36.1842C139.245 36.6002 139.369 36.9202 139.617 37.1442C139.873 37.3602 140.217 37.4682 140.649 37.4682ZM138.897 40.9362C138.897 41.3362 139.065 41.6322 139.401 41.8242C139.737 42.0242 140.157 42.1242 140.661 42.1242C141.157 42.1242 141.553 42.0162 141.849 41.8002C142.153 41.5842 142.305 41.2962 142.305 40.9362C142.305 40.6802 142.201 40.4562 141.993 40.2642C141.785 40.0802 141.401 39.9722 140.841 39.9402C140.401 39.9082 140.021 39.8682 139.701 39.8202C139.373 39.9962 139.157 40.1842 139.053 40.3842C138.949 40.5922 138.897 40.7762 138.897 40.9362Z" fill="#393939"/>
<path d="M150.314 40.3122C149.818 40.3122 149.406 40.2282 149.078 40.0602C148.75 39.8922 148.506 39.6682 148.346 39.3882C148.186 39.1082 148.106 38.8042 148.106 38.4762C148.106 37.8682 148.338 37.4002 148.802 37.0722C149.266 36.7442 149.898 36.5802 150.698 36.5802H152.306V36.5082C152.306 35.9882 152.17 35.5962 151.898 35.3322C151.626 35.0602 151.262 34.9242 150.806 34.9242C150.414 34.9242 150.074 35.0242 149.786 35.2242C149.506 35.4162 149.33 35.7002 149.258 36.0762H148.226C148.266 35.6442 148.41 35.2802 148.658 34.9842C148.914 34.6882 149.23 34.4642 149.606 34.3122C149.982 34.1522 150.382 34.0722 150.806 34.0722C151.638 34.0722 152.262 34.2962 152.678 34.7442C153.102 35.1842 153.314 35.7722 153.314 36.5082V40.1682H152.414L152.354 39.1002C152.186 39.4362 151.938 39.7242 151.61 39.9642C151.29 40.1962 150.858 40.3122 150.314 40.3122ZM150.47 39.4602C150.854 39.4602 151.182 39.3602 151.454 39.1602C151.734 38.9602 151.946 38.7002 152.09 38.3802C152.234 38.0602 152.306 37.7242 152.306 37.3722V37.3602H150.782C150.19 37.3602 149.77 37.4642 149.522 37.6722C149.282 37.8722 149.162 38.1242 149.162 38.4282C149.162 38.7402 149.274 38.9922 149.498 39.1842C149.73 39.3682 150.054 39.4602 150.47 39.4602Z" fill="#393939"/>
<path d="M154.946 42.8082V34.2162H155.858L155.954 35.2002C156.146 34.9122 156.418 34.6522 156.77 34.4202C157.13 34.1882 157.586 34.0722 158.138 34.0722C158.73 34.0722 159.246 34.2082 159.686 34.4802C160.126 34.7522 160.466 35.1242 160.706 35.5962C160.954 36.0682 161.078 36.6042 161.078 37.2042C161.078 37.8042 160.954 38.3402 160.706 38.8122C160.466 39.2762 160.122 39.6442 159.674 39.9162C159.234 40.1802 158.718 40.3122 158.126 40.3122C157.638 40.3122 157.202 40.2122 156.818 40.0122C156.442 39.8122 156.154 39.5322 155.954 39.1722V42.8082H154.946ZM158.018 39.4362C158.418 39.4362 158.77 39.3442 159.074 39.1602C159.378 38.9682 159.618 38.7042 159.794 38.3682C159.97 38.0322 160.058 37.6402 160.058 37.1922C160.058 36.7442 159.97 36.3522 159.794 36.0162C159.618 35.6802 159.378 35.4202 159.074 35.2362C158.77 35.0442 158.418 34.9482 158.018 34.9482C157.618 34.9482 157.266 35.0442 156.962 35.2362C156.658 35.4202 156.418 35.6802 156.242 36.0162C156.066 36.3522 155.978 36.7442 155.978 37.1922C155.978 37.6402 156.066 38.0322 156.242 38.3682C156.418 38.7042 156.658 38.9682 156.962 39.1602C157.266 39.3442 157.618 39.4362 158.018 39.4362Z" fill="#393939"/>
<path d="M162.601 42.8082V34.2162H163.513L163.609 35.2002C163.801 34.9122 164.073 34.6522 164.425 34.4202C164.785 34.1882 165.241 34.0722 165.793 34.0722C166.385 34.0722 166.901 34.2082 167.341 34.4802C167.781 34.7522 168.121 35.1242 168.361 35.5962C168.609 36.0682 168.733 36.6042 168.733 37.2042C168.733 37.8042 168.609 38.3402 168.361 38.8122C168.121 39.2762 167.777 39.6442 167.329 39.9162C166.889 40.1802 166.373 40.3122 165.781 40.3122C165.293 40.3122 164.857 40.2122 164.473 40.0122C164.097 39.8122 163.809 39.5322 163.609 39.1722V42.8082H162.601ZM165.673 39.4362C166.073 39.4362 166.425 39.3442 166.729 39.1602C167.033 38.9682 167.273 38.7042 167.449 38.3682C167.625 38.0322 167.713 37.6402 167.713 37.1922C167.713 36.7442 167.625 36.3522 167.449 36.0162C167.273 35.6802 167.033 35.4202 166.729 35.2362C166.425 35.0442 166.073 34.9482 165.673 34.9482C165.273 34.9482 164.921 35.0442 164.617 35.2362C164.313 35.4202 164.073 35.6802 163.897 36.0162C163.721 36.3522 163.633 36.7442 163.633 37.1922C163.633 37.6402 163.721 38.0322 163.897 38.3682C164.073 38.7042 164.313 38.9682 164.617 39.1602C164.921 39.3442 165.273 39.4362 165.673 39.4362Z" fill="#393939"/>
<path d="M71.6459 11.7454H59V15.5232H63.1859V26.9434H67.4599V15.5232H71.6459V11.7454Z" fill="#393939"/>
<path d="M81.2554 15.2193L80.8368 16.1311C79.8674 15.3278 78.6117 14.8719 77.2017 14.8719C73.5665 14.8719 70.9669 17.4555 70.9669 21.0813C70.9669 24.7288 73.5665 27.3342 77.2017 27.3342C78.5896 27.3342 79.8234 26.9 80.7927 26.1184L81.1452 26.9434H84.3177V15.2193H81.2554ZM77.7524 23.7735C76.2103 23.7735 75.0867 22.6228 75.0867 21.0813C75.0867 19.5615 76.2103 18.4325 77.7524 18.4325C79.2946 18.4325 80.4182 19.5615 80.4182 21.0813C80.4182 22.6228 79.2946 23.7735 77.7524 23.7735Z" fill="#393939"/>
<path d="M86.9258 13.7646H90.9795V10.3342H86.9258V13.7646ZM86.9038 26.9434H91.0016V15.2193H86.9038V26.9434Z" fill="#393939"/>
<path d="M98.4643 23.361L102.959 15.8923V15.2193H93.1327V18.8016H97.2966L92.7362 26.3572V26.9434H103.003V23.361H98.4643Z" fill="#393939"/>
<path d="M110.731 27.3342C114.609 27.3342 117.407 24.7071 117.407 21.0813C117.407 17.4555 114.609 14.8502 110.731 14.8502C106.854 14.8502 104.078 17.4555 104.078 21.0813C104.078 24.7071 106.854 27.3342 110.731 27.3342ZM110.731 23.7084C109.255 23.7084 108.176 22.6445 108.176 21.103C108.176 19.5398 109.255 18.476 110.731 18.476C112.23 18.476 113.309 19.5615 113.309 21.103C113.309 22.6445 112.23 23.7084 110.731 23.7084Z" fill="#393939"/>
<path d="M119.151 26.9434H123.138V23.209H119.151V26.9434Z" fill="#393939"/>
<path d="M125.588 13.7646H129.642V10.3342H125.588V13.7646ZM125.566 26.9434H129.664V15.2193H125.566V26.9434Z" fill="#393939"/>
<path d="M139.418 14.8936C137.875 14.8936 136.553 15.4581 135.672 16.4351L135.121 15.2193H132.235V26.9434H136.333V20.6905C136.333 19.1924 137.06 18.324 138.338 18.324C139.373 18.324 139.902 18.997 139.902 20.3649V26.9434H144V19.8004C144 16.8259 142.171 14.8936 139.418 14.8936Z" fill="#393939"/>
<path fill-rule="evenodd" clip-rule="evenodd" d="M0 12.3342C0 5.7068 5.37258 0.334206 12 0.334206H40.3312C46.9586 0.334206 52.3311 5.70679 52.3311 12.3342V40.6658C52.3311 47.2932 46.9586 52.6658 40.3311 52.6658H12C5.37257 52.6658 0 47.2932 0 40.6658V12.3342Z" fill="#169C50"/>
<path fill-rule="evenodd" clip-rule="evenodd" d="M40.7464 30.9717V21.6243C42.1726 21.32 43.2615 20.1652 43.4821 18.7239C43.7026 17.2825 43.0085 15.855 41.7386 15.1384C40.4686 14.4216 38.8878 14.5652 37.7679 15.4989L29.6264 10.798C29.6386 10.6747 29.6459 10.5519 29.6459 10.4258C29.6459 8.48808 28.0751 6.91721 26.1373 6.91721C24.1997 6.91721 22.6287 8.48807 22.6287 10.4258C22.6292 10.5744 22.6399 10.7229 22.6605 10.8701L14.5952 15.5271C13.4863 14.5789 11.9063 14.4162 10.6275 15.1184C9.34875 15.8207 8.63824 17.2414 8.84332 18.6858C9.04864 20.1302 10.1266 21.2968 11.5504 21.6152V30.9808C10.1293 31.2978 9.05163 32.4599 8.84246 33.9008C8.63348 35.3417 9.33605 36.7622 10.6085 37.4701C11.8807 38.1782 13.4582 38.0266 14.5724 37.0893L22.8269 41.856L22.8868 41.7508C23.244 43.3512 23.9531 44.6257 24.8398 45.2653V45.9032H25.5516V45.6226C25.7412 45.682 25.9387 45.7126 26.1373 45.7133C26.4247 45.7114 26.7084 45.6495 26.9706 45.5319V45.9042H27.6838V45.0649C28.5597 44.1762 29.1487 43.0449 29.3744 41.8175L37.6827 37.0205C38.7816 37.9997 40.3752 38.1884 41.6725 37.4931C42.9699 36.7978 43.6951 35.3664 43.4882 33.9091C43.2814 32.4517 42.186 31.2786 40.7464 30.9717ZM39.9979 16.155C41.146 16.1545 42.077 17.0848 42.0775 18.2329C42.0779 19.381 41.1474 20.312 39.9993 20.3123C38.8513 20.3126 37.9204 19.3822 37.9202 18.234C37.9202 17.0863 38.8502 16.1557 39.9979 16.155ZM29.1328 12.2483L36.8435 16.6994C36.452 17.5238 36.4001 18.469 36.6993 19.3311L31.4824 22.3896C30.4438 20.8051 28.7553 19.7633 26.8731 19.546V13.8564C27.8142 13.6527 28.6306 13.0715 29.1307 12.2488L29.1328 12.2483ZM26.1209 8.38661C27.269 8.38609 28.2001 9.31636 28.2006 10.4645C28.2009 11.6126 27.2704 12.5436 26.1223 12.5439C24.9744 12.5442 24.0435 11.6138 24.0432 10.4657C24.0432 9.31932 24.9718 8.38902 26.1187 8.38704L26.1209 8.38661ZM23.1801 12.305C23.6774 13.0885 24.4652 13.6428 25.3708 13.8465V19.5515C23.4808 19.78 21.7915 20.8398 20.7632 22.4417L15.6016 19.4269C15.9356 18.5538 15.9021 17.5827 15.5087 16.7348L23.1801 12.305ZM10.2239 18.2336C10.223 17.0852 11.1535 16.1536 12.302 16.1532C13.4504 16.1526 14.3818 17.0833 14.382 18.2318C14.382 19.3807 13.451 20.3116 12.3024 20.3114C11.1545 20.3121 10.2233 19.3824 10.2219 18.2344L10.2239 18.2336ZM12.3029 36.5214C11.1544 36.5221 10.223 35.5913 10.2229 34.4428C10.2229 33.2942 11.1542 32.3633 12.3027 32.364C13.4511 32.3646 14.3814 33.2964 14.3801 34.4449C14.3793 35.5925 13.4487 36.5222 12.301 36.5222L12.3029 36.5214ZM13.0537 30.9708V21.6243C13.7084 21.4849 14.3093 21.1603 14.7846 20.689L20.1058 23.7955C19.5199 25.4555 19.6525 27.2846 20.4717 28.8428L14.9464 32.0811C14.4497 31.5182 13.7855 31.1294 13.0515 30.9717L13.0537 30.9708ZM29.63 39.9356C29.6392 39.7543 29.6449 39.5729 29.6449 39.3875C29.6449 36.3699 28.4725 33.8492 26.9048 33.2186V27.8789C27.8702 27.5332 28.4468 26.5432 28.2716 25.533C28.0961 24.5227 27.2193 23.7851 26.194 23.7851C25.1687 23.7851 24.2919 24.5227 24.1165 25.533C23.941 26.5432 24.5178 27.5332 25.4831 27.8789V33.1755C23.8601 33.7295 22.6318 36.2983 22.6318 39.3866C22.6318 39.5997 22.6396 39.81 22.65 40.0173L15.496 35.8853C15.7149 35.4214 15.8288 34.9149 15.8292 34.4019C15.8288 34.0586 15.7781 33.7172 15.6792 33.3886L21.3181 30.084C22.2744 31.1841 23.5781 31.9241 25.013 32.1813V30.6911C22.5902 30.1237 20.9697 27.8404 21.2337 25.3661C21.4977 22.8919 23.5636 21.0019 26.0515 20.9584C28.5393 20.915 30.6699 22.7318 31.0202 25.1953C31.3704 27.6589 29.8303 29.9974 27.4289 30.6489V32.1577C28.7876 31.8765 30.0177 31.1603 30.9329 30.1176L36.6413 33.4508C36.4199 34.2279 36.475 35.0576 36.7972 35.7987L29.63 39.9356ZM37.3497 32.1256L31.7889 28.8781C32.6333 27.293 32.7651 25.424 32.1517 23.7361L37.4799 20.6133C37.9572 21.1149 38.5726 21.4634 39.2481 21.6147V30.9803C38.5069 31.1455 37.8397 31.5478 37.3476 32.126L37.3497 32.1256ZM39.9985 36.5232C38.8501 36.5239 37.9188 35.5934 37.9183 34.4452C37.9179 33.297 38.8486 32.3659 39.9969 32.3658C41.1453 32.3658 42.076 33.2968 42.0757 34.4451C42.0747 35.592 41.1448 36.5214 39.9979 36.5222L39.9985 36.5232Z" fill="white"/>
</svg>
