<svg width="153" height="47" viewBox="0 0 153 47" fill="none" xmlns="http://www.w3.org/2000/svg">
<path fill-rule="evenodd" clip-rule="evenodd" d="M0 10.1875C0 4.66465 4.47715 0.1875 10 0.1875H36C41.5228 0.1875 46 4.66465 46 10.1875V36.1875C46 41.7103 41.5228 46.1875 36 46.1875H10C4.47715 46.1875 0 41.7103 0 36.1875V10.1875Z" fill="#169C50"/>
<path fill-rule="evenodd" clip-rule="evenodd" d="M35.8169 27.1182V18.9017C37.0706 18.6342 38.0277 17.6191 38.2216 16.3522C38.4154 15.0852 37.8053 13.8304 36.689 13.2005C35.5727 12.5704 34.1832 12.6967 33.1987 13.5174L26.0422 9.38524C26.0529 9.27686 26.0594 9.16892 26.0594 9.0581C26.0594 7.35481 24.6786 5.974 22.9752 5.974C21.272 5.974 19.8911 7.3548 19.8911 9.0581C19.8916 9.18874 19.901 9.31925 19.919 9.44862L12.8295 13.5422C11.8547 12.7087 10.4659 12.5657 9.34185 13.1829C8.2178 13.8003 7.59325 15.049 7.77352 16.3188C7.954 17.5884 8.90153 18.6138 10.153 18.8937V27.1261C8.90395 27.4048 7.95663 28.4263 7.77277 29.6929C7.58907 30.9594 8.20664 32.208 9.32516 32.8303C10.4434 33.4527 11.8301 33.3195 12.8095 32.4956L20.0653 36.6856L20.118 36.5931C20.432 37.9999 21.0553 39.1201 21.8347 39.6824V40.2431H22.4604V39.9964C22.627 40.0487 22.8006 40.0755 22.9752 40.0761C23.2279 40.0745 23.4773 40.0201 23.7077 39.9167V40.2439H24.3347V39.5062C25.1046 38.725 25.6223 37.7306 25.8207 36.6517L33.1238 32.4351C34.0898 33.2958 35.4906 33.4617 36.631 32.8505C37.7714 32.2394 38.4088 30.9811 38.227 29.7001C38.0452 28.4191 37.0823 27.3879 35.8169 27.1182ZM35.1589 14.0941C36.1682 14.0937 36.9865 14.9114 36.9869 15.9206C36.9873 16.9298 36.1694 17.7482 35.1602 17.7484C34.151 17.7487 33.3328 16.9309 33.3327 15.9216C33.3327 14.9127 34.1501 14.0947 35.1589 14.0941ZM25.6082 10.66L32.3861 14.5727C32.0419 15.2973 31.9964 16.1281 32.2593 16.886L27.6736 19.5744C26.7606 18.1815 25.2764 17.2659 23.622 17.0749V12.0736C24.4492 11.8946 25.1668 11.3836 25.6064 10.6605L25.6082 10.66ZM22.9607 7.26562C23.97 7.26517 24.7885 8.08288 24.7888 9.09213C24.7891 10.1013 23.9712 10.9196 22.962 10.9199C21.953 10.9202 21.1347 10.1023 21.1345 9.09315C21.1345 8.08549 21.9507 7.26774 22.9589 7.266L22.9607 7.26562ZM20.3758 10.71C20.813 11.3986 21.5054 11.8859 22.3014 12.0649V17.0797C20.6401 17.2806 19.1552 18.2121 18.2513 19.6202L13.7142 16.9701C14.0078 16.2028 13.9783 15.3491 13.6325 14.6038L20.3758 10.71ZM8.98706 15.9212C8.98626 14.9118 9.80417 14.0929 10.8137 14.0925C11.8232 14.092 12.6419 14.9101 12.6421 15.9196C12.6421 16.9296 11.8237 17.7478 10.8141 17.7477C9.80503 17.7483 8.98653 16.9311 8.98529 15.922L8.98706 15.9212ZM10.8146 31.9964C9.80496 31.9971 8.9863 31.1789 8.98619 30.1694C8.98619 29.1597 9.80485 28.3415 10.8144 28.342C11.8238 28.3426 12.6416 29.1617 12.6405 30.1712C12.6397 31.1799 11.8217 31.9972 10.8129 31.9972L10.8146 31.9964ZM11.4745 27.1174V18.9017C12.0499 18.7792 12.5782 18.4938 12.996 18.0796L17.6734 20.8102C17.1584 22.2694 17.2749 23.8772 17.995 25.2468L13.1382 28.0933C12.7015 27.5986 12.1177 27.2568 11.4725 27.1182L11.4745 27.1174ZM26.0453 34.9975C26.0534 34.8382 26.0584 34.6788 26.0584 34.5158C26.0584 31.8633 25.0279 29.6476 23.6498 29.0933V24.3997C24.4985 24.0957 25.0053 23.2255 24.8512 22.3376C24.697 21.4495 23.9263 20.8011 23.025 20.8011C22.1238 20.8011 21.3531 21.4495 21.1988 22.3376C21.0446 23.2255 21.5516 24.0957 22.4002 24.3997V29.0554C20.9735 29.5424 19.8938 31.8003 19.8938 34.515C19.8938 34.7023 19.9007 34.8872 19.9098 35.0694L13.6213 31.4373C13.8137 31.0295 13.9138 30.5843 13.9142 30.1334C13.9138 29.8317 13.8693 29.5315 13.7824 29.2427L18.739 26.3379C19.5797 27.3049 20.7256 27.9554 21.9869 28.1815V26.8715C19.8573 26.3728 18.4328 24.3657 18.6649 22.1909C18.8969 20.016 20.7129 18.3547 22.8998 18.3165C25.0866 18.2783 26.9595 19.8753 27.2673 22.0407C27.5752 24.2062 26.2214 26.2618 24.1105 26.8345V28.1607C25.3049 27.9135 26.3862 27.284 27.1906 26.3675L32.2084 29.2974C32.0138 29.9804 32.0623 30.7098 32.3454 31.3612L26.0453 34.9975ZM32.8312 28.1324L27.9431 25.2779C28.6853 23.8846 28.8012 22.2417 28.262 20.758L32.9456 18.0131C33.3652 18.454 33.9061 18.7603 34.4999 18.8933V27.1258C33.8483 27.271 33.2619 27.6245 32.8293 28.1328L32.8312 28.1324ZM35.1595 31.998C34.15 31.9986 33.3313 31.1808 33.331 30.1714C33.3306 29.1622 34.1487 28.3437 35.1581 28.3436C36.1675 28.3436 36.9856 29.162 36.9854 30.1713C36.9845 31.1795 36.1677 31.9973 35.1595 31.998Z" fill="white"/>
<path d="M53.903 35.4118L56.7415 28.0281H57.7206L60.5481 35.4118H59.569L58.8648 33.5131H55.5863L54.8711 35.4118H53.903ZM55.8613 32.7959H58.5898L57.2255 29.1462L55.8613 32.7959Z" fill="white"/>
<path d="M66.8601 35.5384C66.2073 35.5384 65.6645 35.3801 65.2318 35.0637C64.799 34.7473 64.546 34.3183 64.4726 33.7768H65.4188C65.4775 34.0511 65.6279 34.2902 65.8699 34.4941C66.1193 34.691 66.453 34.7894 66.8711 34.7894C67.2598 34.7894 67.5459 34.7121 67.7292 34.5574C67.9126 34.3957 68.0043 34.2058 68.0043 33.9878C68.0043 33.6713 67.8833 33.4604 67.6412 33.3549C67.4065 33.2494 67.0728 33.1545 66.64 33.0701C66.3467 33.0138 66.0533 32.933 65.7599 32.8275C65.4665 32.722 65.2208 32.5743 65.0228 32.3845C64.8247 32.1876 64.7257 31.9309 64.7257 31.6145C64.7257 31.1574 64.9017 30.7847 65.2538 30.4964C65.6132 30.201 66.0973 30.0533 66.706 30.0533C67.2855 30.0533 67.7586 30.194 68.1253 30.4753C68.4994 30.7495 68.7157 31.1433 68.7744 31.6567H67.8613C67.8246 31.3894 67.7036 31.182 67.4982 31.0343C67.3001 30.8796 67.0324 30.8023 66.695 30.8023C66.365 30.8023 66.1083 30.8691 65.9249 31.0027C65.7489 31.1363 65.6609 31.3121 65.6609 31.5301C65.6609 31.741 65.7745 31.9063 66.0019 32.0258C66.2366 32.1454 66.552 32.2473 66.9481 32.3317C67.2855 32.4021 67.6045 32.49 67.9053 32.5954C68.2133 32.6939 68.4627 32.8451 68.6534 33.049C68.8514 33.2459 68.9504 33.5342 68.9504 33.914C68.9578 34.3851 68.7707 34.7754 68.3893 35.0848C68.0153 35.3872 67.5055 35.5384 66.8601 35.5384Z" fill="white"/>
<path d="M70.9418 29.0196C70.7584 29.0196 70.6044 28.9634 70.4797 28.8509C70.3624 28.7313 70.3037 28.5836 70.3037 28.4078C70.3037 28.2391 70.3624 28.0984 70.4797 27.9859C70.6044 27.8734 70.7584 27.8171 70.9418 27.8171C71.1178 27.8171 71.2682 27.8734 71.3929 27.9859C71.5176 28.0984 71.5799 28.2391 71.5799 28.4078C71.5799 28.5836 71.5176 28.7313 71.3929 28.8509C71.2682 28.9634 71.1178 29.0196 70.9418 29.0196ZM70.4797 35.4118V30.1799H71.4039V35.4118H70.4797Z" fill="white"/>
<path d="M73.123 35.4118V30.1799H73.9592L74.0252 30.9394C74.2012 30.6581 74.4359 30.4401 74.7293 30.2854C75.0227 30.1307 75.3528 30.0533 75.7195 30.0533C76.1522 30.0533 76.5226 30.1377 76.8307 30.3065C77.1461 30.4753 77.3881 30.7319 77.5568 31.0765C77.7475 30.7601 78.0079 30.5104 78.3379 30.3276C78.6753 30.1448 79.0384 30.0533 79.4271 30.0533C80.0799 30.0533 80.6007 30.2432 80.9894 30.6229C81.3782 30.9956 81.5725 31.5723 81.5725 32.3528V35.4118H80.6594V32.4478C80.6594 31.9063 80.5457 31.4984 80.3183 31.2242C80.0909 30.9499 79.7645 30.8128 79.3391 30.8128C78.899 30.8128 78.5323 30.9781 78.2389 31.3086C77.9529 31.632 77.8099 32.0962 77.8099 32.7009V35.4118H76.8857V32.4478C76.8857 31.9063 76.772 31.4984 76.5446 31.2242C76.3173 30.9499 75.9909 30.8128 75.5655 30.8128C75.1327 30.8128 74.7696 30.9781 74.4763 31.3086C74.1902 31.632 74.0472 32.0962 74.0472 32.7009V35.4118H73.123Z" fill="white"/>
<path d="M83.0746 37.7324V30.1799H83.9108L83.9988 31.0449C84.1748 30.7917 84.4242 30.5632 84.7469 30.3592C85.077 30.1553 85.4951 30.0533 86.0011 30.0533C86.5439 30.0533 87.017 30.1729 87.4204 30.412C87.8238 30.6511 88.1355 30.9781 88.3556 31.393C88.5829 31.8078 88.6966 32.279 88.6966 32.8064C88.6966 33.3338 88.5829 33.805 88.3556 34.2198C88.1355 34.6277 87.8201 34.9512 87.4094 35.1903C87.006 35.4223 86.5329 35.5384 85.9902 35.5384C85.5427 35.5384 85.143 35.4505 84.7909 35.2747C84.4462 35.0989 84.1822 34.8527 83.9988 34.5363V37.7324H83.0746ZM85.8911 34.7683C86.2579 34.7683 86.5806 34.6875 86.8593 34.5257C87.138 34.357 87.3581 34.1249 87.5194 33.8296C87.6808 33.5342 87.7615 33.1896 87.7615 32.7959C87.7615 32.4021 87.6808 32.0575 87.5194 31.7621C87.3581 31.4668 87.138 31.2382 86.8593 31.0765C86.5806 30.9077 86.2579 30.8234 85.8911 30.8234C85.5244 30.8234 85.2017 30.9077 84.923 31.0765C84.6442 31.2382 84.4242 31.4668 84.2628 31.7621C84.1015 32.0575 84.0208 32.4021 84.0208 32.7959C84.0208 33.1896 84.1015 33.5342 84.2628 33.8296C84.4242 34.1249 84.6442 34.357 84.923 34.5257C85.2017 34.6875 85.5244 34.7683 85.8911 34.7683Z" fill="white"/>
<path d="M90.0931 35.4118V27.8171H91.0173V35.4118H90.0931Z" fill="white"/>
<path d="M95.0955 35.5384C94.5747 35.5384 94.1126 35.4259 93.7092 35.2008C93.3058 34.9688 92.9868 34.6488 92.7521 34.2409C92.5247 33.8331 92.411 33.3514 92.411 32.7959C92.411 32.2474 92.5247 31.7692 92.7521 31.3613C92.9794 30.9464 93.2948 30.6265 93.6982 30.4014C94.109 30.1694 94.582 30.0533 95.1175 30.0533C95.6456 30.0533 96.1003 30.1694 96.4817 30.4014C96.8704 30.6265 97.1675 30.9253 97.3729 31.298C97.5782 31.6707 97.6809 32.0715 97.6809 32.5005C97.6809 32.5779 97.6773 32.6552 97.6699 32.7326C97.6699 32.8099 97.6699 32.8978 97.6699 32.9963H93.3242C93.3462 33.3971 93.4415 33.7311 93.6102 33.9983C93.7862 34.2585 94.0026 34.4554 94.2593 34.589C94.5234 34.7226 94.8021 34.7894 95.0955 34.7894C95.4769 34.7894 95.7959 34.7051 96.0526 34.5363C96.3093 34.3675 96.4964 34.139 96.6137 33.8507H97.5269C97.3802 34.3359 97.0978 34.7402 96.6797 35.0637C96.269 35.3801 95.7409 35.5384 95.0955 35.5384ZM95.0955 30.8023C94.6554 30.8023 94.263 30.9324 93.9183 31.1925C93.5809 31.4457 93.3865 31.8184 93.3352 32.3106H96.7678C96.7458 31.8395 96.5771 31.4703 96.2617 31.2031C95.9463 30.9359 95.5575 30.8023 95.0955 30.8023Z" fill="white"/>
<path d="M102.038 35.4118V27.8171H102.962V31.0765C103.145 30.753 103.405 30.5034 103.743 30.3276C104.08 30.1448 104.447 30.0533 104.843 30.0533C105.474 30.0533 105.98 30.2432 106.361 30.6229C106.743 30.9956 106.933 31.5723 106.933 32.3528V35.4118H106.02V32.4478C106.02 31.3578 105.562 30.8128 104.645 30.8128C104.168 30.8128 103.769 30.9781 103.446 31.3086C103.123 31.632 102.962 32.0962 102.962 32.7009V35.4118H102.038Z" fill="white"/>
<path d="M109.005 29.0196C108.821 29.0196 108.667 28.9634 108.543 28.8509C108.425 28.7313 108.367 28.5836 108.367 28.4078C108.367 28.2391 108.425 28.0984 108.543 27.9859C108.667 27.8734 108.821 27.8171 109.005 27.8171C109.181 27.8171 109.331 27.8734 109.456 27.9859C109.58 28.0984 109.643 28.2391 109.643 28.4078C109.643 28.5836 109.58 28.7313 109.456 28.8509C109.331 28.9634 109.181 29.0196 109.005 29.0196ZM108.543 35.4118V30.1799H109.467V35.4118H108.543Z" fill="white"/>
<path d="M111.186 35.4118V30.1799H112.022L112.099 31.182C112.268 30.8374 112.524 30.5632 112.869 30.3592C113.214 30.1553 113.639 30.0533 114.145 30.0533V30.9816H113.892C113.57 30.9816 113.273 31.0378 113.001 31.1503C112.73 31.2558 112.513 31.4387 112.352 31.6988C112.191 31.959 112.11 32.3177 112.11 32.7748V35.4118H111.186Z" fill="white"/>
<path d="M115.854 29.0196C115.67 29.0196 115.516 28.9634 115.392 28.8509C115.274 28.7313 115.216 28.5836 115.216 28.4078C115.216 28.2391 115.274 28.0984 115.392 27.9859C115.516 27.8734 115.67 27.8171 115.854 27.8171C116.03 27.8171 116.18 27.8734 116.305 27.9859C116.43 28.0984 116.492 28.2391 116.492 28.4078C116.492 28.5836 116.43 28.7313 116.305 28.8509C116.18 28.9634 116.03 29.0196 115.854 29.0196ZM115.392 35.4118V30.1799H116.316V35.4118H115.392Z" fill="white"/>
<path d="M118.035 35.4118V30.1799H118.871L118.926 31.1187C119.102 30.7882 119.355 30.528 119.685 30.3381C120.015 30.1483 120.389 30.0533 120.808 30.0533C121.453 30.0533 121.966 30.2432 122.348 30.6229C122.737 30.9956 122.931 31.5723 122.931 32.3528V35.4118H122.007V32.4478C122.007 31.3578 121.537 30.8128 120.599 30.8128C120.129 30.8128 119.737 30.9781 119.421 31.3086C119.113 31.632 118.959 32.0962 118.959 32.7009V35.4118H118.035Z" fill="white"/>
<path d="M126.597 33.7663C126.289 33.7663 126.007 33.7276 125.75 33.6502L125.2 34.146C125.281 34.2023 125.38 34.2515 125.497 34.2937C125.622 34.3288 125.798 34.364 126.025 34.3992C126.253 34.4273 126.572 34.4589 126.983 34.4941C127.716 34.5433 128.24 34.7051 128.556 34.9793C128.871 35.2536 129.029 35.6122 129.029 36.0552C129.029 36.3576 128.941 36.6459 128.765 36.9202C128.596 37.1944 128.332 37.4194 127.973 37.5952C127.621 37.7711 127.166 37.859 126.608 37.859C126.117 37.859 125.681 37.7957 125.299 37.6691C124.918 37.5495 124.621 37.3632 124.408 37.11C124.195 36.8639 124.089 36.551 124.089 36.1712C124.089 35.9744 124.144 35.7599 124.254 35.5278C124.364 35.3028 124.569 35.0883 124.87 34.8844C124.709 34.8211 124.569 34.7543 124.452 34.684C124.342 34.6066 124.239 34.5222 124.144 34.4308V34.1882L125.079 33.3022C124.646 32.9506 124.43 32.4864 124.43 31.9098C124.43 31.5652 124.514 31.2523 124.683 30.971C124.852 30.6897 125.098 30.4682 125.42 30.3065C125.743 30.1377 126.135 30.0533 126.597 30.0533C126.913 30.0533 127.199 30.0955 127.456 30.1799H129.469V30.8444L128.446 30.8866C128.659 31.182 128.765 31.523 128.765 31.9098C128.765 32.2544 128.677 32.5673 128.501 32.8486C128.332 33.1299 128.086 33.3549 127.764 33.5237C127.448 33.6854 127.06 33.7663 126.597 33.7663ZM126.597 33.0385C126.986 33.0385 127.294 32.9435 127.522 32.7537C127.756 32.5568 127.874 32.2755 127.874 31.9098C127.874 31.5512 127.756 31.2769 127.522 31.0871C127.294 30.8902 126.986 30.7917 126.597 30.7917C126.201 30.7917 125.886 30.8902 125.651 31.0871C125.424 31.2769 125.31 31.5512 125.31 31.9098C125.31 32.2755 125.424 32.5568 125.651 32.7537C125.886 32.9435 126.201 33.0385 126.597 33.0385ZM124.991 36.0869C124.991 36.4385 125.145 36.6987 125.453 36.8674C125.761 37.0432 126.146 37.1311 126.608 37.1311C127.063 37.1311 127.426 37.0362 127.698 36.8463C127.976 36.6565 128.116 36.4033 128.116 36.0869C128.116 35.8618 128.02 35.6649 127.83 35.4962C127.639 35.3344 127.287 35.2395 126.774 35.2114C126.37 35.1832 126.022 35.1481 125.728 35.1059C125.428 35.2606 125.23 35.4258 125.134 35.6017C125.039 35.7845 124.991 35.9462 124.991 36.0869Z" fill="white"/>
<path d="M135.459 35.5384C135.004 35.5384 134.626 35.4645 134.325 35.3169C134.025 35.1692 133.801 34.9723 133.654 34.7262C133.508 34.48 133.434 34.2128 133.434 33.9245C133.434 33.3901 133.647 32.9787 134.072 32.6904C134.498 32.4021 135.077 32.2579 135.811 32.2579H137.285V32.1946C137.285 31.7375 137.16 31.393 136.911 31.1609C136.661 30.9218 136.328 30.8023 135.91 30.8023C135.55 30.8023 135.238 30.8902 134.974 31.066C134.718 31.2347 134.556 31.4844 134.49 31.8149H133.544C133.581 31.4351 133.713 31.1152 133.94 30.855C134.175 30.5948 134.465 30.3979 134.809 30.2643C135.154 30.1237 135.521 30.0533 135.91 30.0533C136.672 30.0533 137.245 30.2502 137.626 30.644C138.015 31.0308 138.209 31.5477 138.209 32.1946V35.4118H137.384L137.329 34.473C137.175 34.7684 136.947 35.0215 136.647 35.2325C136.353 35.4364 135.957 35.5384 135.459 35.5384ZM135.602 34.7894C135.954 34.7894 136.254 34.7015 136.504 34.5257C136.76 34.3499 136.955 34.1214 137.087 33.8401C137.219 33.5588 137.285 33.2635 137.285 32.9541V32.9435H135.888C135.345 32.9435 134.96 33.0349 134.732 33.2178C134.512 33.3936 134.402 33.6151 134.402 33.8823C134.402 34.1566 134.505 34.3781 134.71 34.5468C134.923 34.7086 135.22 34.7894 135.602 34.7894Z" fill="white"/>
<path d="M139.705 37.7324V30.1799H140.542L140.63 31.0449C140.806 30.7917 141.055 30.5632 141.378 30.3592C141.708 30.1553 142.126 30.0533 142.632 30.0533C143.175 30.0533 143.648 30.1729 144.051 30.412C144.455 30.6511 144.766 30.9781 144.986 31.393C145.214 31.8078 145.327 32.279 145.327 32.8064C145.327 33.3338 145.214 33.805 144.986 34.2198C144.766 34.6277 144.451 34.9512 144.04 35.1903C143.637 35.4223 143.164 35.5384 142.621 35.5384C142.174 35.5384 141.774 35.4505 141.422 35.2747C141.077 35.0989 140.813 34.8527 140.63 34.5363V37.7324H139.705ZM142.522 34.7683C142.889 34.7683 143.211 34.6875 143.49 34.5257C143.769 34.357 143.989 34.1249 144.15 33.8296C144.312 33.5342 144.392 33.1896 144.392 32.7959C144.392 32.4021 144.312 32.0575 144.15 31.7621C143.989 31.4668 143.769 31.2382 143.49 31.0765C143.211 30.9077 142.889 30.8234 142.522 30.8234C142.155 30.8234 141.833 30.9077 141.554 31.0765C141.275 31.2382 141.055 31.4668 140.894 31.7621C140.732 32.0575 140.652 32.4021 140.652 32.7959C140.652 33.1896 140.732 33.5342 140.894 33.8296C141.055 34.1249 141.275 34.357 141.554 34.5257C141.833 34.6875 142.155 34.7683 142.522 34.7683Z" fill="white"/>
<path d="M146.724 37.7324V30.1799H147.56L147.648 31.0449C147.824 30.7917 148.074 30.5632 148.396 30.3592C148.726 30.1553 149.144 30.0533 149.65 30.0533C150.193 30.0533 150.666 30.1729 151.07 30.412C151.473 30.6511 151.785 30.9781 152.005 31.393C152.232 31.8078 152.346 32.279 152.346 32.8064C152.346 33.3338 152.232 33.805 152.005 34.2198C151.785 34.6277 151.469 34.9512 151.059 35.1903C150.655 35.4223 150.182 35.5384 149.639 35.5384C149.192 35.5384 148.792 35.4505 148.44 35.2747C148.096 35.0989 147.831 34.8527 147.648 34.5363V37.7324H146.724ZM149.54 34.7683C149.907 34.7683 150.23 34.6875 150.509 34.5257C150.787 34.357 151.007 34.1249 151.169 33.8296C151.33 33.5342 151.411 33.1896 151.411 32.7959C151.411 32.4021 151.33 32.0575 151.169 31.7621C151.007 31.4668 150.787 31.2382 150.509 31.0765C150.23 30.9077 149.907 30.8234 149.54 30.8234C149.174 30.8234 148.851 30.9077 148.572 31.0765C148.294 31.2382 148.074 31.4668 147.912 31.7621C147.751 32.0575 147.67 32.4021 147.67 32.7959C147.67 33.1896 147.751 33.5342 147.912 33.8296C148.074 34.1249 148.294 34.357 148.572 34.5257C148.851 34.6875 149.174 34.7683 149.54 34.7683Z" fill="white"/>
<path d="M63.3334 9.42799H51.7393V12.7487H55.577V22.7871H59.4956V12.7487H63.3334V9.42799Z" fill="white"/>
<path d="M72.1436 12.4815L71.7599 13.2831C70.8711 12.5769 69.7198 12.1762 68.4271 12.1762C65.0943 12.1762 62.7108 14.4472 62.7108 17.6343C62.7108 20.8405 65.0943 23.1307 68.4271 23.1307C69.6996 23.1307 70.8307 22.749 71.7195 22.0619L72.0426 22.7871H74.9513V12.4815H72.1436ZM68.932 20.0008C67.5181 20.0008 66.488 18.9893 66.488 17.6343C66.488 16.2984 67.5181 15.306 68.932 15.306C70.346 15.306 71.3761 16.2984 71.3761 17.6343C71.3761 18.9893 70.346 20.0008 68.932 20.0008Z" fill="white"/>
<path d="M77.3425 11.2029H81.059V8.1875H77.3425V11.2029ZM77.3223 22.7871H81.0792V12.4815H77.3223V22.7871Z" fill="white"/>
<path d="M87.9213 19.6382L92.0418 13.0731V12.4815H83.0331V15.6305H86.8507L82.6696 22.2719V22.7871H92.0822V19.6382H87.9213Z" fill="white"/>
<path d="M99.1682 23.1307C102.723 23.1307 105.288 20.8214 105.288 17.6343C105.288 14.4472 102.723 12.1571 99.1682 12.1571C95.6132 12.1571 93.0682 14.4472 93.0682 17.6343C93.0682 20.8214 95.6132 23.1307 99.1682 23.1307ZM99.1682 19.9436C97.8149 19.9436 96.8251 19.0084 96.8251 17.6534C96.8251 16.2793 97.8149 15.3442 99.1682 15.3442C100.542 15.3442 101.531 16.2984 101.531 17.6534C101.531 19.0084 100.542 19.9436 99.1682 19.9436Z" fill="white"/>
<path d="M106.887 22.7871H110.543V19.5046H106.887V22.7871Z" fill="white"/>
<path d="M112.789 11.2029H116.506V8.1875H112.789V11.2029ZM112.769 22.7871H116.526V12.4815H112.769V22.7871Z" fill="white"/>
<path d="M125.468 12.1952C124.054 12.1952 122.843 12.6914 122.035 13.5502L121.53 12.4815H118.884V22.7871H122.641V17.2908C122.641 15.974 123.307 15.2106 124.479 15.2106C125.428 15.2106 125.913 15.8022 125.913 17.0045V22.7871H129.67V16.5083C129.67 13.8938 127.993 12.1952 125.468 12.1952Z" fill="white"/>
</svg>
