<svg width="68" height="68" viewBox="0 0 68 68" fill="none" xmlns="http://www.w3.org/2000/svg">
<g clip-path="url(#clip0_5_180)">
<path d="M50.75 29.8125C52.5345 29.8125 54.2893 29.3564 55.8479 28.4874C57.4065 27.6184 58.7171 26.3655 59.6553 24.8475C60.5934 23.3295 61.128 21.597 61.2082 19.8143C61.2884 18.0316 60.9116 16.2581 60.1135 14.662C59.3155 13.0659 58.1227 11.7003 56.6485 10.6949C55.1742 9.68945 53.4674 9.07756 51.6902 8.9173C49.9129 8.75705 48.1242 9.05375 46.4938 9.77924C44.8635 10.5047 43.4457 11.6349 42.375 13.0625M52.8438 50.75H65.4062C65.4062 46.8629 63.8621 43.1351 61.1135 40.3865C58.365 37.6379 54.6371 36.0938 50.75 36.0938M25.625 13.0625C24.5543 11.6349 23.1365 10.5047 21.5062 9.77924C19.8758 9.05375 18.0871 8.75705 16.3098 8.9173C14.5326 9.07756 12.8258 9.68945 11.3515 10.6949C9.87728 11.7003 8.6845 13.0659 7.88647 14.662C7.08843 16.2581 6.71162 18.0316 6.79183 19.8143C6.87204 21.597 7.4066 23.3295 8.34475 24.8475C9.2829 26.3655 10.5935 27.6184 12.1521 28.4874C13.7107 29.3564 15.4655 29.8125 17.25 29.8125M17.25 36.0938C13.3629 36.0938 9.63505 37.6379 6.88647 40.3865C4.13789 43.1351 2.59375 46.8629 2.59375 50.75H15.1562M44.4688 27.7188C44.4688 33.5005 39.7817 38.1875 34 38.1875C28.2183 38.1875 23.5312 33.5005 23.5312 27.7188C23.5312 21.937 28.2183 17.25 34 17.25C39.7817 17.25 44.4688 21.937 44.4688 27.7188ZM48.6562 59.125C48.6562 55.2379 47.1121 51.5101 44.3635 48.7615C41.615 46.0129 37.8871 44.4688 34 44.4688C30.1129 44.4688 26.385 46.0129 23.6365 48.7615C20.8879 51.5101 19.3438 55.2379 19.3438 59.125H48.6562Z" stroke="#393939" stroke-width="5" stroke-linecap="round" stroke-linejoin="round"/>
</g>
<defs>
<clipPath id="clip0_5_180">
<rect width="67" height="67" fill="white" transform="translate(0.5 0.5)"/>
</clipPath>
</defs>
</svg>
