<svg width="30" height="31" viewBox="0 0 30 31" fill="none" xmlns="http://www.w3.org/2000/svg">
<path fill-rule="evenodd" clip-rule="evenodd" d="M15.0005 30.5729C10.9937 30.5729 7.22674 29.0127 4.3935 26.1796C1.56032 23.3465 0 19.5799 0 15.5735C0 11.5668 1.56032 7.79987 4.3935 4.9667C7.2267 2.13354 10.9937 0.573242 15.0005 0.573242C19.0069 0.573242 22.7735 2.13354 25.6066 4.9667C28.4397 7.79991 30 11.5668 30 15.5735C30 19.5799 28.4397 23.3465 25.6066 26.1796C22.7735 29.0127 19.0068 30.5729 15.0005 30.5729ZM15.143 7.32959C14.0649 7.32961 13.0189 7.5446 12.034 7.96859C11.0497 8.39185 10.1879 8.9687 9.47259 9.68309C8.75887 10.3968 8.18202 11.2586 7.75808 12.2445C7.33346 13.2308 7.11817 14.2791 7.11817 15.3603C7.11817 16.8502 7.50545 18.2443 8.26928 19.5039L6.82027 23.8176L11.2618 22.3902C12.4621 23.0543 13.7699 23.391 15.1499 23.391C16.2328 23.391 17.2808 23.176 18.2648 22.752C19.2495 22.329 20.1116 21.7521 20.8271 21.0375C21.5408 20.3238 22.1177 19.462 22.5416 18.4761C22.9656 17.4891 23.1806 16.4408 23.1806 15.3603C23.1815 14.2798 22.9665 13.2315 22.5416 12.2445C22.1184 11.2602 21.5415 10.3984 20.8271 9.68309C20.1132 8.96914 19.2511 8.3923 18.2648 7.96859C17.2808 7.54458 16.2328 7.32959 15.1499 7.32959H15.143ZM15.1499 22.049C13.8281 22.049 12.5918 21.6762 11.4751 20.9411L8.89751 21.761L9.73901 19.2797C8.89104 18.1138 8.461 16.7948 8.461 15.3602C8.461 14.4623 8.63996 13.5896 8.99291 12.7664C9.34721 11.9421 9.82747 11.2235 10.4203 10.6307C11.0148 10.0371 11.7333 9.5569 12.556 9.20329C13.3793 8.85035 14.252 8.67139 15.1499 8.67139C16.0478 8.67139 16.9205 8.85035 17.7437 9.20329C18.5648 9.55622 19.2834 10.0365 19.8794 10.6307C20.4728 11.2241 20.9528 11.9426 21.3059 12.7664C21.6595 13.5889 21.8387 14.4616 21.8387 15.3602C21.8396 16.2567 21.6604 17.1294 21.3059 17.954C20.9534 18.7762 20.4735 19.4947 19.8794 20.0897C19.285 20.6832 18.5664 21.1635 17.7437 21.5171C16.9196 21.87 16.0469 22.049 15.1499 22.049ZM12.4768 11.4299C12.2785 11.4299 12.092 11.5087 11.9224 11.6639C11.4208 12.1378 11.1555 12.7041 11.134 13.3469V13.4324C11.1268 14.0475 11.3812 14.7428 11.89 15.4988C12.4282 16.2908 12.9587 16.9536 13.4669 17.4689C13.976 17.9852 14.5852 18.4082 15.2777 18.7262C16.218 19.1646 16.899 19.3868 17.3018 19.3868C17.6332 19.3868 17.9987 19.2918 18.3881 19.1042C18.7763 18.916 19.0306 18.681 19.1441 18.4058C19.2641 18.1022 19.325 17.8299 19.325 17.5967C19.325 17.5268 19.318 17.4732 19.3043 17.4374C19.2684 17.3737 18.9474 17.1838 18.3503 16.8731C17.7539 16.562 17.4045 16.4042 17.3117 16.4042C17.2195 16.4042 17.0329 16.578 16.7573 16.9208C16.4809 17.2636 16.2874 17.4374 16.1822 17.4374C16.1111 17.4374 16.0324 17.412 15.9482 17.3618C15.279 17.0246 14.7378 16.6627 14.3399 16.2863C13.8591 15.8342 13.4936 15.3434 13.2535 14.8274C13.2178 14.7698 13.2004 14.7173 13.2004 14.6672C13.2004 14.597 13.3243 14.4308 13.5686 14.1731C13.8122 13.9151 13.9358 13.7089 13.9358 13.5602C13.9348 13.51 13.8427 13.2336 13.6694 12.761C13.5046 12.3128 13.3796 11.9801 13.3174 11.8241C13.2608 11.675 13.2054 11.5763 13.1527 11.5307C13.0995 11.4847 13.0045 11.4614 12.8701 11.4614C12.8225 11.4614 12.7565 11.4564 12.6685 11.4461C12.5835 11.4354 12.519 11.4299 12.4768 11.4299Z" fill="white"/>
</svg>
