<svg width="28" height="27" viewBox="0 0 28 27" fill="none" xmlns="http://www.w3.org/2000/svg">
<path fill-rule="evenodd" clip-rule="evenodd" d="M22.8487 4.60295C12.4715 -5.47372 -3.80785 6.99191 3.24509 19.6271L1.47794 26.079L8.08079 24.3478C20.7133 31.0268 32.8068 14.8405 22.8487 4.60295Z" fill="#F1F1F1"/>
<path fill-rule="evenodd" clip-rule="evenodd" d="M14.0386 23.9611C11.9885 23.9684 9.99562 23.3528 8.2768 22.2615L4.28188 23.3088L5.34838 19.4152C4.15012 17.6394 3.47431 15.5566 3.48349 13.4009C3.46459 4.07267 14.9382 -0.68338 21.5049 5.94485C28.1242 12.5167 23.3695 23.9817 14.0386 23.9611Z" fill="#169C50"/>
<path fill-rule="evenodd" clip-rule="evenodd" d="M19.9653 15.7569C19.648 15.5982 18.088 14.8305 17.7972 14.7247C17.5064 14.6189 17.2947 14.5659 17.0833 14.8837C16.8716 15.2013 16.2641 15.9157 16.0789 16.1271C15.8939 16.339 15.7087 16.3655 15.3915 16.2067C14.7059 16.2983 11.1892 13.3242 11.0747 12.4348C10.8898 12.1176 11.055 11.9456 11.214 11.7874C11.4902 11.4842 11.8399 11.1029 12.007 10.7025C12.1129 10.4906 12.0599 10.3053 11.9806 10.1466C11.9012 9.98783 11.2845 8.41859 11.0024 7.79138C10.7648 7.26299 10.5145 7.25246 10.2885 7.24301C9.75307 7.25138 9.33862 7.11233 8.83426 7.63262C6.94318 9.45269 7.81042 12.0104 9.01921 13.5605C9.1777 13.7721 11.2143 17.078 14.4395 18.3497C17.1197 19.4068 17.6651 19.1964 18.247 19.1435C18.8288 19.0906 20.1243 18.3762 20.3886 17.6353C20.653 16.8944 20.653 16.2594 20.5739 16.1268C20.4942 15.9951 20.2825 15.9157 19.9653 15.7569Z" fill="#F1F1F1"/>
</svg>
