<svg width="30" height="31" viewBox="0 0 30 31" fill="none" xmlns="http://www.w3.org/2000/svg">
<path fill-rule="evenodd" clip-rule="evenodd" d="M15.0009 30.5737C8.9331 30.5737 3.46354 26.9188 1.14205 21.3133C-1.17944 15.7088 0.104015 9.2567 4.39421 4.96672C10.2518 -0.891235 19.749 -0.891235 25.6067 4.96662C31.4644 10.8245 31.4644 20.322 25.6067 26.1798C22.8002 29.0023 18.9812 30.5845 15.0009 30.5737ZM15.0009 9.71972C14.9659 9.71972 11.48 9.71972 9.17708 9.88672L9.07008 9.89773C8.47918 9.91666 7.91904 10.1657 7.50912 10.5917C7.15447 11.0787 6.92694 11.6466 6.84714 12.2437C6.74344 13.1401 6.68769 14.0414 6.68015 14.9437V16.2067C6.68781 17.1074 6.74356 18.007 6.84714 18.9017C6.92463 19.4969 7.14941 20.0634 7.50112 20.5497C7.93532 20.9663 8.50773 21.2084 9.10908 21.2297C9.19708 21.2397 9.27207 21.2497 9.33607 21.2607C10.648 21.3857 14.9539 21.4267 14.9969 21.4277C15.0399 21.4287 18.5158 21.4207 20.8248 21.2537L20.9318 21.2427C21.5224 21.2213 22.082 20.9727 22.4937 20.5487C22.8478 20.0615 23.075 19.4937 23.1547 18.8967C23.2582 18.002 23.3139 17.1024 23.3217 16.2017V14.9407C23.3142 14.0384 23.2585 13.1371 23.1547 12.2407V12.2337C23.0769 11.6382 22.8491 11.0721 22.4927 10.5887C22.0808 10.1656 21.5219 9.91707 20.9318 9.89472L20.8258 9.88373C18.5258 9.71773 15.0369 9.71572 15.0019 9.71572L15.0009 9.71972ZM13.281 17.7327V13.0557L17.7808 15.4027L13.281 17.7327Z" fill="#F5F5F5"/>
</svg>
