<svg width="153" height="46" viewBox="0 0 153 46" fill="none" xmlns="http://www.w3.org/2000/svg">
<path fill-rule="evenodd" clip-rule="evenodd" d="M0 10C0 4.47715 4.47715 0 10 0H36C41.5228 0 46 4.47715 46 10V36C46 41.5228 41.5228 46 36 46H10C4.47715 46 0 41.5228 0 36V10Z" fill="#169C50"/>
<path fill-rule="evenodd" clip-rule="evenodd" d="M35.8169 26.9307V18.7142C37.0706 18.4467 38.0277 17.4316 38.2216 16.1647C38.4154 14.8977 37.8053 13.6429 36.689 13.013C35.5727 12.3829 34.1832 12.5092 33.1987 13.3299L26.0422 9.19774C26.0529 9.08936 26.0594 8.98142 26.0594 8.8706C26.0594 7.16731 24.6786 5.7865 22.9752 5.7865C21.272 5.7865 19.8911 7.1673 19.8911 8.8706C19.8916 9.00124 19.901 9.13175 19.919 9.26112L12.8295 13.3547C11.8547 12.5212 10.4659 12.3782 9.34185 12.9954C8.2178 13.6128 7.59325 14.8615 7.77352 16.1313C7.954 17.4009 8.90153 18.4263 10.153 18.7062V26.9386C8.90395 27.2173 7.95663 28.2388 7.77277 29.5054C7.58907 30.7719 8.20664 32.0205 9.32516 32.6428C10.4434 33.2652 11.8301 33.132 12.8095 32.3081L20.0653 36.4981L20.118 36.4056C20.432 37.8124 21.0553 38.9326 21.8347 39.4949V40.0556H22.4604V39.8089C22.627 39.8612 22.8006 39.888 22.9752 39.8886C23.2279 39.887 23.4773 39.8326 23.7077 39.7292V40.0564H24.3347V39.3187C25.1046 38.5375 25.6223 37.5431 25.8207 36.4642L33.1238 32.2476C34.0898 33.1083 35.4906 33.2742 36.631 32.663C37.7714 32.0519 38.4088 30.7936 38.227 29.5126C38.0452 28.2316 37.0823 27.2004 35.8169 26.9307ZM35.1589 13.9066C36.1682 13.9062 36.9865 14.7239 36.9869 15.7331C36.9873 16.7423 36.1694 17.5607 35.1602 17.5609C34.151 17.5612 33.3328 16.7434 33.3327 15.7341C33.3327 14.7252 34.1501 13.9072 35.1589 13.9066ZM25.6082 10.4725L32.3861 14.3852C32.0419 15.1098 31.9964 15.9406 32.2593 16.6985L27.6736 19.3869C26.7606 17.994 25.2764 17.0784 23.622 16.8874V11.8861C24.4492 11.7071 25.1668 11.1961 25.6064 10.473L25.6082 10.4725ZM22.9607 7.07812C23.97 7.07767 24.7885 7.89538 24.7888 8.90463C24.7891 9.91377 23.9712 10.7321 22.962 10.7324C21.953 10.7327 21.1347 9.91485 21.1345 8.90565C21.1345 7.89799 21.9507 7.08024 22.9589 7.0785L22.9607 7.07812ZM20.3758 10.5225C20.813 11.2111 21.5054 11.6984 22.3014 11.8774V16.8922C20.6401 17.0931 19.1552 18.0246 18.2513 19.4327L13.7142 16.7826C14.0078 16.0153 13.9783 15.1616 13.6325 14.4163L20.3758 10.5225ZM8.98706 15.7337C8.98626 14.7243 9.80417 13.9054 10.8137 13.905C11.8232 13.9045 12.6419 14.7226 12.6421 15.7321C12.6421 16.7421 11.8237 17.5603 10.8141 17.5602C9.80503 17.5608 8.98653 16.7436 8.98529 15.7345L8.98706 15.7337ZM10.8146 31.8089C9.80496 31.8096 8.9863 30.9914 8.98619 29.9819C8.98619 28.9722 9.80485 28.154 10.8144 28.1545C11.8238 28.1551 12.6416 28.9742 12.6405 29.9837C12.6397 30.9924 11.8217 31.8097 10.8129 31.8097L10.8146 31.8089ZM11.4745 26.9299V18.7142C12.0499 18.5917 12.5782 18.3063 12.996 17.8921L17.6734 20.6227C17.1584 22.0819 17.2749 23.6897 17.995 25.0593L13.1382 27.9058C12.7015 27.4111 12.1177 27.0693 11.4725 26.9307L11.4745 26.9299ZM26.0453 34.81C26.0534 34.6507 26.0584 34.4913 26.0584 34.3283C26.0584 31.6758 25.0279 29.4601 23.6498 28.9058V24.2122C24.4985 23.9082 25.0053 23.038 24.8512 22.1501C24.697 21.262 23.9263 20.6136 23.025 20.6136C22.1238 20.6136 21.3531 21.262 21.1988 22.1501C21.0446 23.038 21.5516 23.9082 22.4002 24.2122V28.8679C20.9735 29.3549 19.8938 31.6128 19.8938 34.3275C19.8938 34.5148 19.9007 34.6997 19.9098 34.8819L13.6213 31.2498C13.8137 30.842 13.9138 30.3968 13.9142 29.9459C13.9138 29.6442 13.8693 29.344 13.7824 29.0552L18.739 26.1504C19.5797 27.1174 20.7256 27.7679 21.9869 27.994V26.684C19.8573 26.1853 18.4328 24.1782 18.6649 22.0034C18.8969 19.8285 20.7129 18.1672 22.8998 18.129C25.0866 18.0908 26.9595 19.6878 27.2673 21.8532C27.5752 24.0187 26.2214 26.0743 24.1105 26.647V27.9732C25.3049 27.726 26.3862 27.0965 27.1906 26.18L32.2084 29.1099C32.0138 29.7929 32.0623 30.5223 32.3454 31.1737L26.0453 34.81ZM32.8312 27.9449L27.9431 25.0904C28.6853 23.6971 28.8012 22.0542 28.262 20.5705L32.9456 17.8256C33.3652 18.2665 33.9061 18.5728 34.4999 18.7058V26.9383C33.8483 27.0835 33.2619 27.437 32.8293 27.9453L32.8312 27.9449ZM35.1595 31.8105C34.15 31.8111 33.3313 30.9933 33.331 29.9839C33.3306 28.9747 34.1487 28.1562 35.1581 28.1561C36.1675 28.1561 36.9856 28.9745 36.9854 29.9838C36.9845 30.992 36.1677 31.8098 35.1595 31.8105Z" fill="white"/>
<path d="M53.903 35.2243L56.7415 27.8406H57.7206L60.5481 35.2243H59.569L58.8648 33.3256H55.5863L54.8711 35.2243H53.903ZM55.8613 32.6084H58.5898L57.2255 28.9587L55.8613 32.6084Z" fill="white"/>
<path d="M66.8601 35.3509C66.2073 35.3509 65.6645 35.1926 65.2318 34.8762C64.799 34.5598 64.546 34.1308 64.4726 33.5893H65.4188C65.4775 33.8636 65.6279 34.1027 65.8699 34.3066C66.1193 34.5035 66.453 34.6019 66.8711 34.6019C67.2598 34.6019 67.5459 34.5246 67.7292 34.3699C67.9126 34.2082 68.0043 34.0183 68.0043 33.8003C68.0043 33.4838 67.8833 33.2729 67.6412 33.1674C67.4065 33.0619 67.0728 32.967 66.64 32.8826C66.3467 32.8263 66.0533 32.7455 65.7599 32.64C65.4665 32.5345 65.2208 32.3868 65.0228 32.197C64.8247 32.0001 64.7257 31.7434 64.7257 31.427C64.7257 30.9699 64.9017 30.5972 65.2538 30.3089C65.6132 30.0135 66.0973 29.8658 66.706 29.8658C67.2855 29.8658 67.7586 30.0065 68.1253 30.2878C68.4994 30.562 68.7157 30.9558 68.7744 31.4692H67.8613C67.8246 31.2019 67.7036 30.9945 67.4982 30.8468C67.3001 30.6921 67.0324 30.6148 66.695 30.6148C66.365 30.6148 66.1083 30.6816 65.9249 30.8152C65.7489 30.9488 65.6609 31.1246 65.6609 31.3426C65.6609 31.5535 65.7745 31.7188 66.0019 31.8383C66.2366 31.9579 66.552 32.0598 66.9481 32.1442C67.2855 32.2146 67.6045 32.3025 67.9053 32.4079C68.2133 32.5064 68.4627 32.6576 68.6534 32.8615C68.8514 33.0584 68.9504 33.3467 68.9504 33.7265C68.9578 34.1976 68.7707 34.5879 68.3893 34.8973C68.0153 35.1997 67.5055 35.3509 66.8601 35.3509Z" fill="white"/>
<path d="M70.9418 28.8321C70.7584 28.8321 70.6044 28.7759 70.4797 28.6634C70.3624 28.5438 70.3037 28.3961 70.3037 28.2203C70.3037 28.0516 70.3624 27.9109 70.4797 27.7984C70.6044 27.6859 70.7584 27.6296 70.9418 27.6296C71.1178 27.6296 71.2682 27.6859 71.3929 27.7984C71.5176 27.9109 71.5799 28.0516 71.5799 28.2203C71.5799 28.3961 71.5176 28.5438 71.3929 28.6634C71.2682 28.7759 71.1178 28.8321 70.9418 28.8321ZM70.4797 35.2243V29.9924H71.4039V35.2243H70.4797Z" fill="white"/>
<path d="M73.123 35.2243V29.9924H73.9592L74.0252 30.7519C74.2012 30.4706 74.4359 30.2526 74.7293 30.0979C75.0227 29.9432 75.3528 29.8658 75.7195 29.8658C76.1522 29.8658 76.5226 29.9502 76.8307 30.119C77.1461 30.2878 77.3881 30.5444 77.5568 30.889C77.7475 30.5726 78.0079 30.3229 78.3379 30.1401C78.6753 29.9573 79.0384 29.8658 79.4271 29.8658C80.0799 29.8658 80.6007 30.0557 80.9894 30.4354C81.3782 30.8081 81.5725 31.3848 81.5725 32.1653V35.2243H80.6594V32.2603C80.6594 31.7188 80.5457 31.3109 80.3183 31.0367C80.0909 30.7624 79.7645 30.6253 79.3391 30.6253C78.899 30.6253 78.5323 30.7906 78.2389 31.1211C77.9529 31.4445 77.8099 31.9087 77.8099 32.5134V35.2243H76.8857V32.2603C76.8857 31.7188 76.772 31.3109 76.5446 31.0367C76.3173 30.7624 75.9909 30.6253 75.5655 30.6253C75.1327 30.6253 74.7696 30.7906 74.4763 31.1211C74.1902 31.4445 74.0472 31.9087 74.0472 32.5134V35.2243H73.123Z" fill="white"/>
<path d="M83.0746 37.5449V29.9924H83.9108L83.9988 30.8574C84.1748 30.6042 84.4242 30.3757 84.7469 30.1717C85.077 29.9678 85.4951 29.8658 86.0011 29.8658C86.5439 29.8658 87.017 29.9854 87.4204 30.2245C87.8238 30.4636 88.1355 30.7906 88.3556 31.2055C88.5829 31.6203 88.6966 32.0915 88.6966 32.6189C88.6966 33.1463 88.5829 33.6175 88.3556 34.0323C88.1355 34.4402 87.8201 34.7637 87.4094 35.0028C87.006 35.2348 86.5329 35.3509 85.9902 35.3509C85.5427 35.3509 85.143 35.263 84.7909 35.0872C84.4462 34.9114 84.1822 34.6652 83.9988 34.3488V37.5449H83.0746ZM85.8911 34.5808C86.2579 34.5808 86.5806 34.5 86.8593 34.3382C87.138 34.1695 87.3581 33.9374 87.5194 33.6421C87.6808 33.3467 87.7615 33.0021 87.7615 32.6084C87.7615 32.2146 87.6808 31.87 87.5194 31.5746C87.3581 31.2793 87.138 31.0507 86.8593 30.889C86.5806 30.7202 86.2579 30.6359 85.8911 30.6359C85.5244 30.6359 85.2017 30.7202 84.923 30.889C84.6442 31.0507 84.4242 31.2793 84.2628 31.5746C84.1015 31.87 84.0208 32.2146 84.0208 32.6084C84.0208 33.0021 84.1015 33.3467 84.2628 33.6421C84.4242 33.9374 84.6442 34.1695 84.923 34.3382C85.2017 34.5 85.5244 34.5808 85.8911 34.5808Z" fill="white"/>
<path d="M90.0931 35.2243V27.6296H91.0173V35.2243H90.0931Z" fill="white"/>
<path d="M95.0955 35.3509C94.5747 35.3509 94.1126 35.2384 93.7092 35.0133C93.3058 34.7813 92.9868 34.4613 92.7521 34.0534C92.5247 33.6456 92.411 33.1639 92.411 32.6084C92.411 32.0599 92.5247 31.5817 92.7521 31.1738C92.9794 30.7589 93.2948 30.439 93.6982 30.2139C94.109 29.9819 94.582 29.8658 95.1175 29.8658C95.6456 29.8658 96.1003 29.9819 96.4817 30.2139C96.8704 30.439 97.1675 30.7378 97.3729 31.1105C97.5782 31.4832 97.6809 31.884 97.6809 32.313C97.6809 32.3904 97.6773 32.4677 97.6699 32.5451C97.6699 32.6224 97.6699 32.7103 97.6699 32.8088H93.3242C93.3462 33.2096 93.4415 33.5436 93.6102 33.8108C93.7862 34.071 94.0026 34.2679 94.2593 34.4015C94.5234 34.5351 94.8021 34.6019 95.0955 34.6019C95.4769 34.6019 95.7959 34.5176 96.0526 34.3488C96.3093 34.18 96.4964 33.9515 96.6137 33.6632H97.5269C97.3802 34.1484 97.0978 34.5527 96.6797 34.8762C96.269 35.1926 95.7409 35.3509 95.0955 35.3509ZM95.0955 30.6148C94.6554 30.6148 94.263 30.7449 93.9183 31.005C93.5809 31.2582 93.3865 31.6309 93.3352 32.1231H96.7678C96.7458 31.652 96.5771 31.2828 96.2617 31.0156C95.9463 30.7484 95.5575 30.6148 95.0955 30.6148Z" fill="white"/>
<path d="M102.038 35.2243V27.6296H102.962V30.889C103.145 30.5655 103.405 30.3159 103.743 30.1401C104.08 29.9573 104.447 29.8658 104.843 29.8658C105.474 29.8658 105.98 30.0557 106.361 30.4354C106.743 30.8081 106.933 31.3848 106.933 32.1653V35.2243H106.02V32.2603C106.02 31.1703 105.562 30.6253 104.645 30.6253C104.168 30.6253 103.769 30.7906 103.446 31.1211C103.123 31.4445 102.962 31.9087 102.962 32.5134V35.2243H102.038Z" fill="white"/>
<path d="M109.005 28.8321C108.821 28.8321 108.667 28.7759 108.543 28.6634C108.425 28.5438 108.367 28.3961 108.367 28.2203C108.367 28.0516 108.425 27.9109 108.543 27.7984C108.667 27.6859 108.821 27.6296 109.005 27.6296C109.181 27.6296 109.331 27.6859 109.456 27.7984C109.58 27.9109 109.643 28.0516 109.643 28.2203C109.643 28.3961 109.58 28.5438 109.456 28.6634C109.331 28.7759 109.181 28.8321 109.005 28.8321ZM108.543 35.2243V29.9924H109.467V35.2243H108.543Z" fill="white"/>
<path d="M111.186 35.2243V29.9924H112.022L112.099 30.9945C112.268 30.6499 112.524 30.3757 112.869 30.1717C113.214 29.9678 113.639 29.8658 114.145 29.8658V30.7941H113.892C113.57 30.7941 113.273 30.8503 113.001 30.9628C112.73 31.0683 112.513 31.2512 112.352 31.5113C112.191 31.7715 112.11 32.1302 112.11 32.5873V35.2243H111.186Z" fill="white"/>
<path d="M115.854 28.8321C115.67 28.8321 115.516 28.7759 115.392 28.6634C115.274 28.5438 115.216 28.3961 115.216 28.2203C115.216 28.0516 115.274 27.9109 115.392 27.7984C115.516 27.6859 115.67 27.6296 115.854 27.6296C116.03 27.6296 116.18 27.6859 116.305 27.7984C116.43 27.9109 116.492 28.0516 116.492 28.2203C116.492 28.3961 116.43 28.5438 116.305 28.6634C116.18 28.7759 116.03 28.8321 115.854 28.8321ZM115.392 35.2243V29.9924H116.316V35.2243H115.392Z" fill="white"/>
<path d="M118.035 35.2243V29.9924H118.871L118.926 30.9312C119.102 30.6007 119.355 30.3405 119.685 30.1506C120.015 29.9608 120.389 29.8658 120.808 29.8658C121.453 29.8658 121.966 30.0557 122.348 30.4354C122.737 30.8081 122.931 31.3848 122.931 32.1653V35.2243H122.007V32.2603C122.007 31.1703 121.537 30.6253 120.599 30.6253C120.129 30.6253 119.737 30.7906 119.421 31.1211C119.113 31.4445 118.959 31.9087 118.959 32.5134V35.2243H118.035Z" fill="white"/>
<path d="M126.597 33.5788C126.289 33.5788 126.007 33.5401 125.75 33.4627L125.2 33.9585C125.281 34.0148 125.38 34.064 125.497 34.1062C125.622 34.1413 125.798 34.1765 126.025 34.2117C126.253 34.2398 126.572 34.2714 126.983 34.3066C127.716 34.3558 128.24 34.5176 128.556 34.7918C128.871 35.0661 129.029 35.4247 129.029 35.8677C129.029 36.1701 128.941 36.4584 128.765 36.7327C128.596 37.0069 128.332 37.2319 127.973 37.4077C127.621 37.5836 127.166 37.6715 126.608 37.6715C126.117 37.6715 125.681 37.6082 125.299 37.4816C124.918 37.362 124.621 37.1757 124.408 36.9225C124.195 36.6764 124.089 36.3635 124.089 35.9837C124.089 35.7869 124.144 35.5724 124.254 35.3403C124.364 35.1153 124.569 34.9008 124.87 34.6969C124.709 34.6336 124.569 34.5668 124.452 34.4965C124.342 34.4191 124.239 34.3347 124.144 34.2433V34.0007L125.079 33.1147C124.646 32.7631 124.43 32.2989 124.43 31.7223C124.43 31.3777 124.514 31.0648 124.683 30.7835C124.852 30.5022 125.098 30.2807 125.42 30.119C125.743 29.9502 126.135 29.8658 126.597 29.8658C126.913 29.8658 127.199 29.908 127.456 29.9924H129.469V30.6569L128.446 30.6991C128.659 30.9945 128.765 31.3355 128.765 31.7223C128.765 32.0669 128.677 32.3798 128.501 32.6611C128.332 32.9424 128.086 33.1674 127.764 33.3362C127.448 33.4979 127.06 33.5788 126.597 33.5788ZM126.597 32.851C126.986 32.851 127.294 32.756 127.522 32.5662C127.756 32.3693 127.874 32.088 127.874 31.7223C127.874 31.3637 127.756 31.0894 127.522 30.8996C127.294 30.7027 126.986 30.6042 126.597 30.6042C126.201 30.6042 125.886 30.7027 125.651 30.8996C125.424 31.0894 125.31 31.3637 125.31 31.7223C125.31 32.088 125.424 32.3693 125.651 32.5662C125.886 32.756 126.201 32.851 126.597 32.851ZM124.991 35.8994C124.991 36.251 125.145 36.5112 125.453 36.6799C125.761 36.8557 126.146 36.9436 126.608 36.9436C127.063 36.9436 127.426 36.8487 127.698 36.6588C127.976 36.469 128.116 36.2158 128.116 35.8994C128.116 35.6743 128.02 35.4774 127.83 35.3087C127.639 35.1469 127.287 35.052 126.774 35.0239C126.37 34.9957 126.022 34.9606 125.728 34.9184C125.428 35.0731 125.23 35.2383 125.134 35.4142C125.039 35.597 124.991 35.7587 124.991 35.8994Z" fill="white"/>
<path d="M135.459 35.3509C135.004 35.3509 134.626 35.277 134.325 35.1294C134.025 34.9817 133.801 34.7848 133.654 34.5387C133.508 34.2925 133.434 34.0253 133.434 33.737C133.434 33.2026 133.647 32.7912 134.072 32.5029C134.498 32.2146 135.077 32.0704 135.811 32.0704H137.285V32.0071C137.285 31.55 137.16 31.2055 136.911 30.9734C136.661 30.7343 136.328 30.6148 135.91 30.6148C135.55 30.6148 135.238 30.7027 134.974 30.8785C134.718 31.0472 134.556 31.2969 134.49 31.6274H133.544C133.581 31.2476 133.713 30.9277 133.94 30.6675C134.175 30.4073 134.465 30.2104 134.809 30.0768C135.154 29.9362 135.521 29.8658 135.91 29.8658C136.672 29.8658 137.245 30.0627 137.626 30.4565C138.015 30.8433 138.209 31.3602 138.209 32.0071V35.2243H137.384L137.329 34.2855C137.175 34.5809 136.947 34.834 136.647 35.045C136.353 35.2489 135.957 35.3509 135.459 35.3509ZM135.602 34.6019C135.954 34.6019 136.254 34.514 136.504 34.3382C136.76 34.1624 136.955 33.9339 137.087 33.6526C137.219 33.3713 137.285 33.076 137.285 32.7666V32.756H135.888C135.345 32.756 134.96 32.8474 134.732 33.0303C134.512 33.2061 134.402 33.4276 134.402 33.6948C134.402 33.9691 134.505 34.1906 134.71 34.3593C134.923 34.5211 135.22 34.6019 135.602 34.6019Z" fill="white"/>
<path d="M139.705 37.5449V29.9924H140.542L140.63 30.8574C140.806 30.6042 141.055 30.3757 141.378 30.1717C141.708 29.9678 142.126 29.8658 142.632 29.8658C143.175 29.8658 143.648 29.9854 144.051 30.2245C144.455 30.4636 144.766 30.7906 144.986 31.2055C145.214 31.6203 145.327 32.0915 145.327 32.6189C145.327 33.1463 145.214 33.6175 144.986 34.0323C144.766 34.4402 144.451 34.7637 144.04 35.0028C143.637 35.2348 143.164 35.3509 142.621 35.3509C142.174 35.3509 141.774 35.263 141.422 35.0872C141.077 34.9114 140.813 34.6652 140.63 34.3488V37.5449H139.705ZM142.522 34.5808C142.889 34.5808 143.211 34.5 143.49 34.3382C143.769 34.1695 143.989 33.9374 144.15 33.6421C144.312 33.3467 144.392 33.0021 144.392 32.6084C144.392 32.2146 144.312 31.87 144.15 31.5746C143.989 31.2793 143.769 31.0507 143.49 30.889C143.211 30.7202 142.889 30.6359 142.522 30.6359C142.155 30.6359 141.833 30.7202 141.554 30.889C141.275 31.0507 141.055 31.2793 140.894 31.5746C140.732 31.87 140.652 32.2146 140.652 32.6084C140.652 33.0021 140.732 33.3467 140.894 33.6421C141.055 33.9374 141.275 34.1695 141.554 34.3382C141.833 34.5 142.155 34.5808 142.522 34.5808Z" fill="white"/>
<path d="M146.724 37.5449V29.9924H147.56L147.648 30.8574C147.824 30.6042 148.074 30.3757 148.396 30.1717C148.726 29.9678 149.144 29.8658 149.65 29.8658C150.193 29.8658 150.666 29.9854 151.07 30.2245C151.473 30.4636 151.785 30.7906 152.005 31.2055C152.232 31.6203 152.346 32.0915 152.346 32.6189C152.346 33.1463 152.232 33.6175 152.005 34.0323C151.785 34.4402 151.469 34.7637 151.059 35.0028C150.655 35.2348 150.182 35.3509 149.639 35.3509C149.192 35.3509 148.792 35.263 148.44 35.0872C148.096 34.9114 147.831 34.6652 147.648 34.3488V37.5449H146.724ZM149.54 34.5808C149.907 34.5808 150.23 34.5 150.509 34.3382C150.787 34.1695 151.007 33.9374 151.169 33.6421C151.33 33.3467 151.411 33.0021 151.411 32.6084C151.411 32.2146 151.33 31.87 151.169 31.5746C151.007 31.2793 150.787 31.0507 150.509 30.889C150.23 30.7202 149.907 30.6359 149.54 30.6359C149.174 30.6359 148.851 30.7202 148.572 30.889C148.294 31.0507 148.074 31.2793 147.912 31.5746C147.751 31.87 147.67 32.2146 147.67 32.6084C147.67 33.0021 147.751 33.3467 147.912 33.6421C148.074 33.9374 148.294 34.1695 148.572 34.3382C148.851 34.5 149.174 34.5808 149.54 34.5808Z" fill="white"/>
<path d="M63.3334 9.24049H51.7393V12.5612H55.577V22.5996H59.4956V12.5612H63.3334V9.24049Z" fill="white"/>
<path d="M72.1436 12.294L71.7599 13.0956C70.8711 12.3894 69.7198 11.9887 68.4271 11.9887C65.0943 11.9887 62.7108 14.2597 62.7108 17.4468C62.7108 20.653 65.0943 22.9432 68.4271 22.9432C69.6996 22.9432 70.8307 22.5615 71.7195 21.8744L72.0426 22.5996H74.9513V12.294H72.1436ZM68.932 19.8133C67.5181 19.8133 66.488 18.8018 66.488 17.4468C66.488 16.1109 67.5181 15.1185 68.932 15.1185C70.346 15.1185 71.3761 16.1109 71.3761 17.4468C71.3761 18.8018 70.346 19.8133 68.932 19.8133Z" fill="white"/>
<path d="M77.3425 11.0154H81.059V8H77.3425V11.0154ZM77.3223 22.5996H81.0792V12.294H77.3223V22.5996Z" fill="white"/>
<path d="M87.9213 19.4507L92.0418 12.8856V12.294H83.0331V15.443H86.8507L82.6696 22.0844V22.5996H92.0822V19.4507H87.9213Z" fill="white"/>
<path d="M99.1682 22.9432C102.723 22.9432 105.288 20.6339 105.288 17.4468C105.288 14.2597 102.723 11.9696 99.1682 11.9696C95.6132 11.9696 93.0682 14.2597 93.0682 17.4468C93.0682 20.6339 95.6132 22.9432 99.1682 22.9432ZM99.1682 19.7561C97.8149 19.7561 96.8251 18.8209 96.8251 17.4659C96.8251 16.0918 97.8149 15.1567 99.1682 15.1567C100.542 15.1567 101.531 16.1109 101.531 17.4659C101.531 18.8209 100.542 19.7561 99.1682 19.7561Z" fill="white"/>
<path d="M106.887 22.5996H110.543V19.3171H106.887V22.5996Z" fill="white"/>
<path d="M112.789 11.0154H116.506V8H112.789V11.0154ZM112.769 22.5996H116.526V12.294H112.769V22.5996Z" fill="white"/>
<path d="M125.468 12.0077C124.054 12.0077 122.843 12.5039 122.035 13.3627L121.53 12.294H118.884V22.5996H122.641V17.1033C122.641 15.7865 123.307 15.0231 124.479 15.0231C125.428 15.0231 125.913 15.6147 125.913 16.817V22.5996H129.67V16.3208C129.67 13.7063 127.993 12.0077 125.468 12.0077Z" fill="white"/>
</svg>
