<svg width="142" height="44" viewBox="0 0 142 44" fill="none" xmlns="http://www.w3.org/2000/svg">
<path d="M51.6384 33.4921L54.2439 26.4294H55.1427L57.7381 33.4921H56.8393L56.193 31.676H53.1835L52.5271 33.4921H51.6384ZM53.436 30.9899H55.9405L54.6882 27.4989L53.436 30.9899Z" fill="#393939"/>
<path d="M63.5319 33.6132C62.9327 33.6132 62.4344 33.4618 62.0372 33.1591C61.64 32.8565 61.4077 32.4461 61.3404 31.9282H62.2089C62.2628 32.1905 62.4008 32.4192 62.623 32.6143C62.8519 32.8026 63.1582 32.8968 63.542 32.8968C63.8988 32.8968 64.1613 32.8228 64.3297 32.6748C64.498 32.5201 64.5821 32.3385 64.5821 32.13C64.5821 31.8273 64.471 31.6255 64.2489 31.5246C64.0334 31.4237 63.7271 31.3329 63.3299 31.2522C63.0606 31.1984 62.7913 31.1211 62.522 31.0202C62.2527 30.9193 62.0271 30.778 61.8454 30.5964C61.6636 30.4081 61.5727 30.1626 61.5727 29.8599C61.5727 29.4227 61.7343 29.0662 62.0574 28.7904C62.3873 28.5079 62.8317 28.3666 63.3905 28.3666C63.9223 28.3666 64.3566 28.5012 64.6932 28.7702C65.0366 29.0325 65.2352 29.4092 65.289 29.9002H64.4508C64.4172 29.6446 64.3061 29.4462 64.1176 29.3049C63.9358 29.157 63.6901 29.083 63.3804 29.083C63.0774 29.083 62.8418 29.1469 62.6735 29.2747C62.5119 29.4025 62.4311 29.5706 62.4311 29.7792C62.4311 29.9809 62.5354 30.139 62.7441 30.2534C62.9596 30.3677 63.2491 30.4652 63.6126 30.546C63.9223 30.6132 64.2152 30.6973 64.4912 30.7982C64.774 30.8924 65.0029 31.037 65.178 31.232C65.3597 31.4204 65.4506 31.6962 65.4506 32.0594C65.4574 32.5101 65.2857 32.8834 64.9356 33.1793C64.5922 33.4686 64.1243 33.6132 63.5319 33.6132Z" fill="#393939"/>
<path d="M67.2785 27.3779C67.1102 27.3779 66.9688 27.324 66.8544 27.2164C66.7466 27.1021 66.6928 26.9608 66.6928 26.7927C66.6928 26.6312 66.7466 26.4967 66.8544 26.3891C66.9688 26.2815 67.1102 26.2276 67.2785 26.2276C67.4401 26.2276 67.5781 26.2815 67.6925 26.3891C67.807 26.4967 67.8642 26.6312 67.8642 26.7927C67.8642 26.9608 67.807 27.1021 67.6925 27.2164C67.5781 27.324 67.4401 27.3779 67.2785 27.3779ZM66.8544 33.4921V28.4877H67.7026V33.4921H66.8544Z" fill="#393939"/>
<path d="M69.2807 33.4921V28.4877H70.0482L70.1088 29.2141C70.2703 28.9451 70.4858 28.7366 70.7551 28.5886C71.0244 28.4406 71.3273 28.3666 71.664 28.3666C72.0612 28.3666 72.4012 28.4473 72.6839 28.6088C72.9734 28.7702 73.1956 29.0157 73.3505 29.3453C73.5255 29.0426 73.7645 28.8038 74.0675 28.629C74.3772 28.4541 74.7104 28.3666 75.0673 28.3666C75.6665 28.3666 76.1445 28.5482 76.5013 28.9115C76.8581 29.268 77.0365 29.8195 77.0365 30.5661V33.4921H76.1983V30.6569C76.1983 30.139 76.094 29.7489 75.8853 29.4866C75.6766 29.2242 75.377 29.0931 74.9865 29.0931C74.5825 29.0931 74.2459 29.2511 73.9766 29.5673C73.714 29.8767 73.5827 30.3206 73.5827 30.8991V33.4921H72.7344V30.6569C72.7344 30.139 72.6301 29.7489 72.4214 29.4866C72.2127 29.2242 71.9131 29.0931 71.5226 29.0931C71.1254 29.0931 70.7921 29.2511 70.5228 29.5673C70.2602 29.8767 70.129 30.3206 70.129 30.8991V33.4921H69.2807Z" fill="#393939"/>
<path d="M78.4153 35.7118V28.4877H79.1828L79.2636 29.315C79.4252 29.0729 79.6541 28.8543 79.9503 28.6592C80.2533 28.4642 80.637 28.3666 81.1016 28.3666C81.5998 28.3666 82.034 28.481 82.4043 28.7097C82.7746 28.9384 83.0608 29.2511 83.2627 29.648C83.4714 30.0448 83.5758 30.4955 83.5758 31C83.5758 31.5045 83.4714 31.9551 83.2627 32.352C83.0608 32.7421 82.7713 33.0515 82.3942 33.2802C82.024 33.5022 81.5897 33.6132 81.0915 33.6132C80.6808 33.6132 80.3139 33.5291 79.9907 33.3609C79.6743 33.1928 79.4319 32.9574 79.2636 32.6547V35.7118H78.4153ZM81.0006 32.8766C81.3372 32.8766 81.6335 32.7993 81.8893 32.6446C82.1451 32.4831 82.3471 32.2612 82.4952 31.9787C82.6433 31.6962 82.7174 31.3666 82.7174 30.9899C82.7174 30.6132 82.6433 30.2836 82.4952 30.0011C82.3471 29.7186 82.1451 29.5 81.8893 29.3453C81.6335 29.1839 81.3372 29.1032 81.0006 29.1032C80.664 29.1032 80.3678 29.1839 80.1119 29.3453C79.8561 29.5 79.6541 29.7186 79.506 30.0011C79.3579 30.2836 79.2838 30.6132 79.2838 30.9899C79.2838 31.3666 79.3579 31.6962 79.506 31.9787C79.6541 32.2612 79.8561 32.4831 80.1119 32.6446C80.3678 32.7993 80.664 32.8766 81.0006 32.8766Z" fill="#393939"/>
<path d="M84.8576 33.4921V26.2276H85.7059V33.4921H84.8576Z" fill="#393939"/>
<path d="M89.4493 33.6132C88.9713 33.6132 88.5472 33.5055 88.1769 33.2903C87.8066 33.0683 87.5137 32.7623 87.2983 32.3722C87.0896 31.982 86.9852 31.5213 86.9852 30.9899C86.9852 30.4652 87.0896 30.0079 87.2983 29.6177C87.507 29.2209 87.7965 28.9148 88.1668 28.6996C88.5438 28.4776 88.9781 28.3666 89.4695 28.3666C89.9543 28.3666 90.3717 28.4776 90.7218 28.6996C91.0786 28.9148 91.3513 29.2007 91.5398 29.5572C91.7283 29.9137 91.8226 30.2971 91.8226 30.7074C91.8226 30.7814 91.8192 30.8554 91.8125 30.9294C91.8125 31.0033 91.8125 31.0874 91.8125 31.1816H87.8234C87.8436 31.565 87.9312 31.8845 88.086 32.1401C88.2476 32.389 88.4462 32.5773 88.6818 32.7051C88.9242 32.8329 89.18 32.8968 89.4493 32.8968C89.7994 32.8968 90.0923 32.8161 90.3279 32.6547C90.5636 32.4932 90.7353 32.2746 90.843 31.9988H91.6812C91.5465 32.463 91.2873 32.8497 90.9036 33.1591C90.5265 33.4618 90.0418 33.6132 89.4493 33.6132ZM89.4493 29.083C89.0454 29.083 88.6852 29.2074 88.3688 29.4563C88.0591 29.6984 87.8807 30.0549 87.8335 30.5258H90.9844C90.9642 30.0751 90.8093 29.722 90.5198 29.4664C90.2303 29.2108 89.8735 29.083 89.4493 29.083Z" fill="#393939"/>
<path d="M95.8215 33.4921V26.2276H96.6698V29.3453C96.8381 29.0359 97.0771 28.7971 97.3868 28.629C97.6965 28.4541 98.0331 28.3666 98.3967 28.3666C98.9757 28.3666 99.4402 28.5482 99.7903 28.9115C100.14 29.268 100.315 29.8195 100.315 30.5661V33.4921H99.4773V30.6569C99.4773 29.6144 99.0565 29.0931 98.2149 29.0931C97.7773 29.0931 97.4104 29.2511 97.1142 29.5673C96.8179 29.8767 96.6698 30.3206 96.6698 30.8991V33.4921H95.8215Z" fill="#393939"/>
<path d="M102.217 27.3779C102.048 27.3779 101.907 27.324 101.793 27.2164C101.685 27.1021 101.631 26.9608 101.631 26.7927C101.631 26.6312 101.685 26.4967 101.793 26.3891C101.907 26.2815 102.048 26.2276 102.217 26.2276C102.378 26.2276 102.516 26.2815 102.631 26.3891C102.745 26.4967 102.802 26.6312 102.802 26.7927C102.802 26.9608 102.745 27.1021 102.631 27.2164C102.516 27.324 102.378 27.3779 102.217 27.3779ZM101.793 33.4921V28.4877H102.641V33.4921H101.793Z" fill="#393939"/>
<path d="M104.219 33.4921V28.4877H104.986L105.057 29.4462C105.212 29.1166 105.448 28.8543 105.764 28.6592C106.08 28.4642 106.471 28.3666 106.935 28.3666V29.2545H106.703C106.407 29.2545 106.134 29.3083 105.885 29.4159C105.636 29.5168 105.437 29.6917 105.289 29.9406C105.141 30.1895 105.067 30.5325 105.067 30.9697V33.4921H104.219Z" fill="#393939"/>
<path d="M108.504 27.3779C108.335 27.3779 108.194 27.324 108.079 27.2164C107.972 27.1021 107.918 26.9608 107.918 26.7927C107.918 26.6312 107.972 26.4967 108.079 26.3891C108.194 26.2815 108.335 26.2276 108.504 26.2276C108.665 26.2276 108.803 26.2815 108.918 26.3891C109.032 26.4967 109.089 26.6312 109.089 26.7927C109.089 26.9608 109.032 27.1021 108.918 27.2164C108.803 27.324 108.665 27.3779 108.504 27.3779ZM108.079 33.4921V28.4877H108.928V33.4921H108.079Z" fill="#393939"/>
<path d="M110.506 33.4921V28.4877H111.273L111.324 29.3857C111.485 29.0695 111.718 28.8207 112.021 28.639C112.324 28.4574 112.667 28.3666 113.051 28.3666C113.643 28.3666 114.114 28.5482 114.464 28.9115C114.821 29.268 115 29.8195 115 30.5661V33.4921H114.151V30.6569C114.151 29.6144 113.721 29.0931 112.859 29.0931C112.428 29.0931 112.068 29.2511 111.778 29.5673C111.495 29.8767 111.354 30.3206 111.354 30.8991V33.4921H110.506Z" fill="#393939"/>
<path d="M118.365 31.9181C118.083 31.9181 117.823 31.8811 117.588 31.8071L117.083 32.2814C117.157 32.3352 117.248 32.3822 117.355 32.4226C117.47 32.4562 117.631 32.4899 117.84 32.5235C118.049 32.5504 118.342 32.5807 118.719 32.6143C119.392 32.6614 119.873 32.8161 120.163 33.0784C120.452 33.3408 120.597 33.6838 120.597 34.1076C120.597 34.3968 120.516 34.6726 120.355 34.9349C120.2 35.1972 119.958 35.4125 119.628 35.5806C119.304 35.7488 118.887 35.8329 118.375 35.8329C117.924 35.8329 117.524 35.7723 117.174 35.6512C116.824 35.5369 116.551 35.3587 116.356 35.1165C116.16 34.8811 116.063 34.5818 116.063 34.2185C116.063 34.0302 116.113 33.825 116.214 33.6031C116.315 33.3878 116.504 33.1827 116.78 32.9876C116.632 32.9271 116.504 32.8632 116.396 32.7959C116.295 32.7219 116.201 32.6412 116.113 32.5538V32.3217L116.972 31.4742C116.574 31.1379 116.376 30.6939 116.376 30.1424C116.376 29.8128 116.453 29.5135 116.608 29.2444C116.763 28.9754 116.989 28.7635 117.285 28.6088C117.581 28.4473 117.941 28.3666 118.365 28.3666C118.655 28.3666 118.917 28.407 119.153 28.4877H121.001V29.1233L120.062 29.1637C120.257 29.4462 120.355 29.7724 120.355 30.1424C120.355 30.472 120.274 30.7713 120.112 31.0403C119.958 31.3094 119.732 31.5246 119.436 31.6861C119.146 31.8408 118.789 31.9181 118.365 31.9181ZM118.365 31.222C118.722 31.222 119.005 31.1312 119.214 30.9495C119.429 30.7612 119.537 30.4921 119.537 30.1424C119.537 29.7993 119.429 29.537 119.214 29.3554C119.005 29.1671 118.722 29.0729 118.365 29.0729C118.002 29.0729 117.712 29.1671 117.497 29.3554C117.288 29.537 117.184 29.7993 117.184 30.1424C117.184 30.4921 117.288 30.7612 117.497 30.9495C117.712 31.1312 118.002 31.222 118.365 31.222ZM116.891 34.1378C116.891 34.4741 117.032 34.723 117.315 34.8844C117.598 35.0526 117.951 35.1367 118.375 35.1367C118.793 35.1367 119.126 35.0459 119.375 34.8643C119.631 34.6827 119.759 34.4405 119.759 34.1378C119.759 33.9226 119.671 33.7342 119.496 33.5728C119.321 33.4181 118.998 33.3273 118.527 33.3004C118.157 33.2735 117.837 33.2399 117.567 33.1995C117.291 33.3475 117.11 33.5055 117.022 33.6737C116.935 33.8486 116.891 34.0033 116.891 34.1378Z" fill="#393939"/>
<path d="M126.499 33.6132C126.082 33.6132 125.735 33.5425 125.459 33.4013C125.183 33.26 124.977 33.0717 124.843 32.8363C124.708 32.6009 124.641 32.3453 124.641 32.0695C124.641 31.5583 124.836 31.1648 125.226 30.889C125.617 30.6132 126.149 30.4753 126.822 30.4753H128.175V30.4148C128.175 29.9776 128.061 29.648 127.832 29.426C127.603 29.1973 127.297 29.083 126.913 29.083C126.583 29.083 126.297 29.1671 126.055 29.3352C125.819 29.4966 125.671 29.7354 125.61 30.0516H124.742C124.775 29.6884 124.897 29.3823 125.105 29.1334C125.321 28.8846 125.587 28.6962 125.903 28.5684C126.22 28.4339 126.556 28.3666 126.913 28.3666C127.613 28.3666 128.138 28.555 128.488 28.9316C128.845 29.3016 129.024 29.796 129.024 30.4148V33.4921H128.266L128.216 32.5941C128.074 32.8766 127.866 33.1188 127.59 33.3206C127.32 33.5156 126.957 33.6132 126.499 33.6132ZM126.63 32.8968C126.953 32.8968 127.229 32.8127 127.458 32.6446C127.694 32.4764 127.872 32.2578 127.994 31.9888C128.115 31.7197 128.175 31.4372 128.175 31.1412V31.1312H126.893C126.395 31.1312 126.041 31.2186 125.832 31.3935C125.63 31.5616 125.529 31.7735 125.529 32.0291C125.529 32.2914 125.624 32.5033 125.812 32.6648C126.007 32.8195 126.28 32.8968 126.63 32.8968Z" fill="#393939"/>
<path d="M130.397 35.7118V28.4877H131.165L131.245 29.315C131.407 29.0729 131.636 28.8543 131.932 28.6592C132.235 28.4642 132.619 28.3666 133.083 28.3666C133.582 28.3666 134.016 28.481 134.386 28.7097C134.757 28.9384 135.043 29.2511 135.245 29.648C135.453 30.0448 135.558 30.4955 135.558 31C135.558 31.5045 135.453 31.9551 135.245 32.352C135.043 32.7421 134.753 33.0515 134.376 33.2802C134.006 33.5022 133.572 33.6132 133.073 33.6132C132.663 33.6132 132.296 33.5291 131.973 33.3609C131.656 33.1928 131.414 32.9574 131.245 32.6547V35.7118H130.397ZM132.982 32.8766C133.319 32.8766 133.615 32.7993 133.871 32.6446C134.127 32.4831 134.329 32.2612 134.477 31.9787C134.625 31.6962 134.699 31.3666 134.699 30.9899C134.699 30.6132 134.625 30.2836 134.477 30.0011C134.329 29.7186 134.127 29.5 133.871 29.3453C133.615 29.1839 133.319 29.1032 132.982 29.1032C132.646 29.1032 132.35 29.1839 132.094 29.3453C131.838 29.5 131.636 29.7186 131.488 30.0011C131.34 30.2836 131.266 30.6132 131.266 30.9899C131.266 31.3666 131.34 31.6962 131.488 31.9787C131.636 32.2612 131.838 32.4831 132.094 32.6446C132.35 32.7993 132.646 32.8766 132.982 32.8766Z" fill="#393939"/>
<path d="M136.84 35.7118V28.4877H137.607L137.688 29.315C137.849 29.0729 138.078 28.8543 138.375 28.6592C138.677 28.4642 139.061 28.3666 139.526 28.3666C140.024 28.3666 140.458 28.481 140.829 28.7097C141.199 28.9384 141.485 29.2511 141.687 29.648C141.896 30.0448 142 30.4955 142 31C142 31.5045 141.896 31.9551 141.687 32.352C141.485 32.7421 141.195 33.0515 140.818 33.2802C140.448 33.5022 140.014 33.6132 139.516 33.6132C139.105 33.6132 138.738 33.5291 138.415 33.3609C138.098 33.1928 137.856 32.9574 137.688 32.6547V35.7118H136.84ZM139.425 32.8766C139.761 32.8766 140.058 32.7993 140.314 32.6446C140.569 32.4831 140.771 32.2612 140.919 31.9787C141.068 31.6962 141.142 31.3666 141.142 30.9899C141.142 30.6132 141.068 30.2836 140.919 30.0011C140.771 29.7186 140.569 29.5 140.314 29.3453C140.058 29.1839 139.761 29.1032 139.425 29.1032C139.088 29.1032 138.792 29.1839 138.536 29.3453C138.28 29.5 138.078 29.7186 137.93 30.0011C137.782 30.2836 137.708 30.6132 137.708 30.9899C137.708 31.3666 137.782 31.6962 137.93 31.9787C138.078 32.2612 138.28 32.4831 138.536 32.6446C138.792 32.7993 139.088 32.8766 139.425 32.8766Z" fill="#393939"/>
<path d="M60.2946 9.59448H49.6523V12.7708H53.175V22.3728H56.7719V12.7708H60.2946V9.59448Z" fill="#393939"/>
<path d="M68.3817 12.5152L68.0294 13.2819C67.2136 12.6065 66.1568 12.2232 64.9702 12.2232C61.911 12.2232 59.7232 14.3955 59.7232 17.444C59.7232 20.5108 61.911 22.7014 64.9702 22.7014C66.1383 22.7014 67.1765 22.3363 67.9923 21.6791L68.289 22.3728H70.9588V12.5152H68.3817ZM65.4337 19.7076C64.1359 19.7076 63.1903 18.7401 63.1903 17.444C63.1903 16.1662 64.1359 15.2169 65.4337 15.2169C66.7316 15.2169 67.6771 16.1662 67.6771 17.444C67.6771 18.7401 66.7316 19.7076 65.4337 19.7076Z" fill="#393939"/>
<path d="M73.1537 11.2922H76.5652V8.40792H73.1537V11.2922ZM73.1352 22.3728H76.5837V12.5152H73.1352V22.3728Z" fill="#393939"/>
<path d="M82.8641 19.3608L86.6464 13.0811V12.5152H78.3772V15.5273H81.8814L78.0435 21.8799V22.3728H86.6834V19.3608H82.8641Z" fill="#393939"/>
<path d="M93.1877 22.7014C96.4509 22.7014 98.8055 20.4926 98.8055 17.444C98.8055 14.3955 96.4509 12.2049 93.1877 12.2049C89.9246 12.2049 87.5884 14.3955 87.5884 17.444C87.5884 20.4926 89.9246 22.7014 93.1877 22.7014ZM93.1877 19.6528C91.9455 19.6528 91.037 18.7584 91.037 17.4623C91.037 16.1479 91.9455 15.2535 93.1877 15.2535C94.4485 15.2535 95.357 16.1662 95.357 17.4623C95.357 18.7584 94.4485 19.6528 93.1877 19.6528Z" fill="#393939"/>
<path d="M100.273 22.3728H103.629V19.233H100.273V22.3728Z" fill="#393939"/>
<path d="M105.69 11.2922H109.102V8.40792H105.69V11.2922ZM105.672 22.3728H109.12V12.5152H105.672V22.3728Z" fill="#393939"/>
<path d="M117.329 12.2414C116.031 12.2414 114.919 12.716 114.177 13.5375L113.713 12.5152H111.285V22.3728H114.733V17.1154C114.733 15.8559 115.345 15.1257 116.42 15.1257C117.292 15.1257 117.737 15.6916 117.737 16.8416V22.3728H121.185V16.367C121.185 13.8661 119.646 12.2414 117.329 12.2414Z" fill="#393939"/>
<path fill-rule="evenodd" clip-rule="evenodd" d="M0 10.0895C0 4.51724 4.52138 0 10.0988 0H33.9413C39.5187 0 44.0401 4.51723 44.0401 10.0895V33.9105C44.0401 39.4828 39.5187 44 33.9413 44H10.0988C4.52137 44 0 39.4828 0 33.9105V10.0895Z" fill="#169C50"/>
<path fill-rule="evenodd" clip-rule="evenodd" d="M34.2907 25.7598V17.9006C35.491 17.6447 36.4074 16.6738 36.593 15.4619C36.7786 14.25 36.1944 13.0498 35.1257 12.4472C34.0569 11.8446 32.7266 11.9653 31.7841 12.7503L24.9325 8.79786C24.9428 8.6942 24.949 8.59095 24.949 8.48495C24.949 6.85571 23.627 5.53494 21.9962 5.53494C20.3656 5.53494 19.0435 6.8557 19.0435 8.48495C19.044 8.60991 19.0529 8.73474 19.0703 8.85849L12.2828 12.774C11.3496 11.9768 10.0199 11.84 8.94373 12.4304C7.86758 13.0209 7.26964 14.2154 7.44223 15.4299C7.61502 16.6444 8.52218 17.6252 9.72037 17.8929V25.7674C8.52449 26.0339 7.61754 27.011 7.44151 28.2225C7.26564 29.4341 7.8569 30.6283 8.92775 31.2236C9.99836 31.8189 11.3259 31.6915 12.2637 30.9034L19.2103 34.9112L19.2607 34.8228C19.5614 36.1684 20.1581 37.2399 20.9043 37.7778V38.3141H21.5033V38.0781C21.6629 38.1281 21.8291 38.1538 21.9962 38.1544C22.2381 38.1528 22.4769 38.1008 22.6975 38.0019V38.3149H23.2977V37.6092C24.0348 36.862 24.5306 35.9108 24.7205 34.8789L31.7124 30.8455C32.6372 31.6688 33.9783 31.8275 35.0701 31.2429C36.162 30.6583 36.7722 29.4548 36.5982 28.2295C36.4241 27.0041 35.5022 26.0178 34.2907 25.7598ZM33.6608 13.302C34.627 13.3015 35.4106 14.0837 35.4109 15.049C35.4113 16.0144 34.6282 16.7972 33.662 16.7974C32.6959 16.7977 31.9124 16.0154 31.9123 15.05C31.9123 14.085 32.695 13.3026 33.6608 13.302ZM24.5171 10.0173L31.0062 13.7598C30.6767 14.4529 30.6331 15.2476 30.8848 15.9725L26.4944 18.544C25.6204 17.2117 24.1995 16.3359 22.6155 16.1532V11.3693C23.4075 11.1981 24.0945 10.7094 24.5154 10.0177L24.5171 10.0173ZM21.9824 6.7704C22.9486 6.76996 23.7322 7.55212 23.7326 8.51749C23.7329 9.48275 22.9498 10.2655 21.9836 10.2658C21.0175 10.2661 20.2341 9.48378 20.2339 8.51846C20.2339 7.55461 21.0154 6.77242 21.9806 6.77076L21.9824 6.7704ZM19.5076 10.0649C19.9261 10.7237 20.5891 11.1898 21.3512 11.361V16.1578C19.7607 16.3499 18.339 17.2409 17.4736 18.5878L13.1298 16.053C13.4109 15.3189 13.3826 14.5024 13.0516 13.7895L19.5076 10.0649ZM8.60411 15.0497C8.60334 14.0841 9.38641 13.3008 10.3529 13.3005C11.3194 13.3 12.1032 14.0825 12.1034 15.0481C12.1034 16.0142 11.3199 16.7969 10.3533 16.7967C9.38722 16.7973 8.6036 16.0156 8.60241 15.0504L8.60411 15.0497ZM10.3537 30.4259C9.38712 30.4265 8.60334 29.6439 8.60324 28.6783C8.60324 27.7125 9.38702 26.9299 10.3535 26.9304C11.32 26.9309 12.1029 27.7144 12.1018 28.68C12.1011 29.6449 11.3179 30.4266 10.3521 30.4266L10.3537 30.4259ZM10.9855 25.759V17.9005C11.5365 17.7833 12.0422 17.5104 12.4422 17.1142L16.9203 19.7261C16.4273 21.1218 16.5388 22.6597 17.2283 23.9698L12.5784 26.6925C12.1603 26.2193 11.6014 25.8924 10.9837 25.7598L10.9855 25.759ZM24.9355 33.2965C24.9433 33.1441 24.9481 32.9916 24.9481 32.8357C24.9481 30.2985 23.9614 28.1792 22.6421 27.6489V23.1594C23.4546 22.8687 23.9399 22.0363 23.7923 21.187C23.6447 20.3375 22.9068 19.7173 22.0439 19.7173C21.1811 19.7173 20.4432 20.3375 20.2956 21.187C20.1479 22.0363 20.6333 22.8687 21.4457 23.1594V27.6127C20.0798 28.0785 19.0462 30.2383 19.0462 32.8349C19.0462 33.0141 19.0527 33.191 19.0614 33.3652L13.0409 29.8911C13.2251 29.501 13.321 29.0752 13.3213 28.6438C13.321 28.3552 13.2783 28.0682 13.1951 27.7919L17.9405 25.0134C18.7454 25.9383 19.8425 26.5605 21.05 26.7768V25.5238C19.0111 25.0467 17.6474 23.127 17.8695 21.0466C18.0917 18.9663 19.8303 17.3772 21.924 17.3407C24.0176 17.3042 25.8107 18.8317 26.1055 20.903C26.4002 22.9744 25.1042 24.9405 23.0832 25.4884V26.757C24.2266 26.5205 25.2619 25.9184 26.0321 25.0417L30.836 27.8442C30.6497 28.4975 30.6961 29.1952 30.9672 29.8183L24.9355 33.2965ZM31.4322 26.7299L26.7525 23.9995C27.463 22.6668 27.574 21.0953 27.0577 19.6761L31.5417 17.0505C31.9435 17.4723 32.4613 17.7653 33.0298 17.8925V25.767C32.4061 25.9059 31.8446 26.2441 31.4304 26.7303L31.4322 26.7299ZM33.6613 30.4274C32.6949 30.428 31.9111 29.6457 31.9107 28.6803C31.9104 27.7148 32.6937 26.932 33.66 26.9319C34.6264 26.9319 35.4097 27.7147 35.4094 28.6801C35.4086 29.6445 34.6261 30.4259 33.6608 30.4266L33.6613 30.4274Z" fill="white"/>
</svg>
