<svg width="30" height="30" viewBox="0 0 30 30" fill="none" xmlns="http://www.w3.org/2000/svg">
<path fill-rule="evenodd" clip-rule="evenodd" d="M15.0005 29.9997C10.9937 29.9997 7.22674 28.4394 4.3935 25.6063C1.56032 22.7733 0 19.0067 0 15.0003C0 10.9935 1.56032 7.22663 4.3935 4.39346C7.2267 1.5603 10.9937 0 15.0005 0C19.0069 0 22.7735 1.5603 25.6066 4.39346C28.4397 7.22667 30 10.9936 30 15.0003C30 19.0066 28.4397 22.7733 25.6066 25.6063C22.7735 28.4394 19.0068 29.9997 15.0005 29.9997ZM15.143 6.75635C14.0649 6.75637 13.0189 6.97136 12.034 7.39535C11.0497 7.81861 10.1879 8.39546 9.47259 9.10985C8.75887 9.82358 8.18202 10.6854 7.75808 11.6712C7.33346 12.6575 7.11817 13.7058 7.11817 14.787C7.11817 16.277 7.50545 17.6711 8.26928 18.9306L6.82027 23.2443L11.2618 21.8169C12.4621 22.4811 13.7699 22.8177 15.1499 22.8177C16.2328 22.8177 17.2808 22.6028 18.2648 22.1787C19.2495 21.7557 20.1116 21.1789 20.8271 20.4642C21.5408 19.7505 22.1177 18.8887 22.5416 17.9028C22.9656 16.9159 23.1806 15.8676 23.1806 14.787C23.1815 13.7065 22.9665 12.6582 22.5416 11.6712C22.1184 10.6869 21.5415 9.82514 20.8271 9.10985C20.1132 8.3959 19.2511 7.81906 18.2648 7.39535C17.2808 6.97134 16.2328 6.75635 15.1499 6.75635H15.143ZM15.1499 21.4757C13.8281 21.4757 12.5918 21.103 11.4751 20.3678L8.89751 21.1877L9.73901 18.7064C8.89104 17.5406 8.461 16.2216 8.461 14.7869C8.461 13.8891 8.63996 13.0164 8.99291 12.1931C9.34721 11.3688 9.82747 10.6503 10.4203 10.0574C11.0148 9.4639 11.7333 8.98365 12.556 8.63004C13.3793 8.2771 14.252 8.09814 15.1499 8.09814C16.0478 8.09814 16.9205 8.2771 17.7437 8.63004C18.5648 8.98298 19.2834 9.46322 19.8794 10.0574C20.4728 10.6508 20.9528 11.3694 21.3059 12.1931C21.6595 13.0157 21.8387 13.8884 21.8387 14.7869C21.8396 15.6834 21.6604 16.5561 21.3059 17.3807C20.9534 18.2029 20.4735 18.9215 19.8794 19.5164C19.285 20.11 18.5664 20.5902 17.7437 20.9438C16.9196 21.2968 16.0469 21.4757 15.1499 21.4757ZM12.4768 10.8567C12.2785 10.8567 12.092 10.9354 11.9224 11.0907C11.4208 11.5646 11.1555 12.1308 11.134 12.7737V12.8592C11.1268 13.4743 11.3812 14.1695 11.89 14.9256C12.4282 15.7175 12.9587 16.3804 13.4669 16.8957C13.976 17.412 14.5852 17.835 15.2777 18.153C16.218 18.5913 16.899 18.8136 17.3018 18.8136C17.6332 18.8136 17.9987 18.7185 18.3881 18.531C18.7763 18.3427 19.0306 18.1077 19.1441 17.8326C19.2641 17.5289 19.325 17.2567 19.325 17.0235C19.325 16.9535 19.318 16.8999 19.3043 16.8642C19.2684 16.8004 18.9474 16.6105 18.3503 16.2999C17.7539 15.9887 17.4045 15.831 17.3117 15.831C17.2195 15.831 17.0329 16.0048 16.7573 16.3476C16.4809 16.6904 16.2874 16.8642 16.1822 16.8642C16.1111 16.8642 16.0324 16.8387 15.9482 16.7886C15.279 16.4513 14.7378 16.0895 14.3399 15.7131C13.8591 15.261 13.4936 14.7701 13.2535 14.2542C13.2178 14.1965 13.2004 14.1441 13.2004 14.094C13.2004 14.0238 13.3243 13.8576 13.5686 13.5999C13.8122 13.3419 13.9358 13.1357 13.9358 12.987C13.9348 12.9367 13.8427 12.6604 13.6694 12.1878C13.5046 11.7396 13.3796 11.4068 13.3174 11.2509C13.2608 11.1017 13.2054 11.003 13.1527 10.9575C13.0995 10.9115 13.0045 10.8882 12.8701 10.8882C12.8225 10.8882 12.7565 10.8832 12.6685 10.8729C12.5835 10.8621 12.519 10.8567 12.4768 10.8567Z" fill="white"/>
</svg>
