<svg width="30" height="30" viewBox="0 0 30 30" fill="none" xmlns="http://www.w3.org/2000/svg">
<path fill-rule="evenodd" clip-rule="evenodd" d="M15.0009 30.0005C8.9331 30.0005 3.46354 26.3456 1.14205 20.7401C-1.17944 15.1355 0.104015 8.68346 4.39421 4.39348C10.2518 -1.46448 19.749 -1.46448 25.6067 4.39338C31.4644 10.2512 31.4644 19.7487 25.6067 25.6066C22.8002 28.4291 18.9812 30.0113 15.0009 30.0005ZM15.0009 9.14648C14.9659 9.14648 11.48 9.14648 9.17708 9.31348L9.07008 9.32448C8.47918 9.34341 7.91904 9.59245 7.50912 10.0185C7.15447 10.5055 6.92694 11.0733 6.84714 11.6705C6.74344 12.5669 6.68769 13.4681 6.68015 14.3705V15.6335C6.68781 16.5342 6.74356 17.4338 6.84714 18.3285C6.92463 18.9237 7.14941 19.4901 7.50112 19.9765C7.93532 20.3931 8.50773 20.6352 9.10908 20.6565C9.19708 20.6665 9.27207 20.6765 9.33607 20.6875C10.648 20.8125 14.9539 20.8535 14.9969 20.8545C15.0399 20.8555 18.5158 20.8475 20.8248 20.6805L20.9318 20.6695C21.5224 20.6481 22.082 20.3995 22.4937 19.9755C22.8478 19.4883 23.075 18.9205 23.1547 18.3235C23.2582 17.4288 23.3139 16.5291 23.3217 15.6285V14.3675C23.3142 13.4652 23.2585 12.5639 23.1547 11.6675V11.6605C23.0769 11.0649 22.8491 10.4989 22.4927 10.0155C22.0808 9.59232 21.5219 9.34383 20.9318 9.32148L20.8258 9.31048C18.5258 9.14448 15.0369 9.14248 15.0019 9.14248L15.0009 9.14648ZM13.281 17.1595V12.4825L17.7808 14.8295L13.281 17.1595Z" fill="#F5F5F5"/>
</svg>
